<?xml version="1.0" encoding="UTF-8"?>
<svg version="1.1" xmlns="http://www.w3.org/2000/svg" width="1400" height="94">
<path d="M0 0 C1.09763672 -0.020625 2.19527344 -0.04125 3.32617188 -0.0625 C4.38255859 -0.06765625 5.43894531 -0.0728125 6.52734375 -0.078125 C7.97548462 -0.09214355 7.97548462 -0.09214355 9.45288086 -0.10644531 C12.57468943 0.31995945 13.90389232 0.95812959 16.0625 3.25 C16.64013672 5.62255859 16.64013672 5.62255859 16.7421875 8.3984375 C16.7834375 9.40390625 16.8246875 10.409375 16.8671875 11.4453125 C16.89039062 12.49460937 16.91359375 13.54390625 16.9375 14.625 C16.98390625 15.6665625 17.0303125 16.708125 17.078125 17.78125 C17.27336295 23.65340668 17.33913221 28.0979721 13.77294922 33.03540039 C10.01990572 35.70045769 4.6123656 34.71609784 0.1875 34.6875 C-0.90175781 34.70748047 -1.99101563 34.72746094 -3.11328125 34.74804688 C-7.77219459 34.74519564 -11.02094707 34.73978643 -15.17578125 32.51953125 C-17.21403333 29.8937564 -17.49077764 28.77457591 -17.25 25.5 C-17.20488281 24.70078125 -17.15976563 23.9015625 -17.11328125 23.078125 C-17.05527344 22.47484375 -16.99726562 21.8715625 -16.9375 21.25 C-18.5875 20.92 -20.2375 20.59 -21.9375 20.25 C-21.9375 17.94 -21.9375 15.63 -21.9375 13.25 C-22.9275 13.25 -23.9175 13.25 -24.9375 13.25 C-24.9375 15.56 -24.9375 17.87 -24.9375 20.25 C-26.37179001 20.92354499 -27.81007057 21.58859701 -29.25 22.25 C-30.45076172 22.806875 -30.45076172 22.806875 -31.67578125 23.375 C-33.9375 24.25 -33.9375 24.25 -36.9375 24.25 C-36.9375 24.91 -36.9375 25.57 -36.9375 26.25 C-32.4825 27.24 -32.4825 27.24 -27.9375 28.25 C-27.9375 28.91 -27.9375 29.57 -27.9375 30.25 C-26.679375 30.353125 -25.42125 30.45625 -24.125 30.5625 C-21.57225861 30.89232322 -20.13947994 31.12376254 -17.9375 32.5 C-16.49798221 35.01915613 -16.38063262 36.3960547 -16.9375 39.25 C-19.50724999 41.96659284 -20.99094589 43.16586186 -24.75 43.5 C-25.471875 43.4175 -26.19375 43.335 -26.9375 43.25 C-26.9375 44.24 -26.9375 45.23 -26.9375 46.25 C-25.98875 46.70375 -25.04 47.1575 -24.0625 47.625 C-20.9375 49.25 -20.9375 49.25 -18.9375 51.25 C-18.66120525 54.93024605 -18.8515685 58.55494557 -18.9375 62.25 C-13.9875 62.25 -9.0375 62.25 -3.9375 62.25 C-4.2675 61.59 -4.5975 60.93 -4.9375 60.25 C-5.34341011 57.19407675 -5.43340292 54.29785278 -4.9375 51.25 C-2.30876719 48.69637384 -0.88621646 48.25 2.75 48.25 C5.0625 49.25 5.0625 49.25 6.375 51.4375 C7.11800636 54.47707147 7.20750687 57.13235232 7.0625 60.25 C6.0725 60.25 5.0825 60.25 4.0625 60.25 C4.0625 60.91 4.0625 61.57 4.0625 62.25 C6.0425 62.745 6.0425 62.745 8.0625 63.25 C8.24701025 78.99487472 8.24701025 78.99487472 7.0625 86.25 C7.7225 86.25 8.3825 86.25 9.0625 86.25 C9.0625 88.23 9.0625 90.21 9.0625 92.25 C6.08369115 93.24293628 4.04648802 93.38406411 0.9375 93.375 C0.04804687 93.37757812 -0.84140625 93.38015625 -1.7578125 93.3828125 C-3.9375 93.25 -3.9375 93.25 -4.9375 92.25 C-4.97830783 90.25041636 -4.98004356 88.24954746 -4.9375 86.25 C-3.6175 86.25 -2.2975 86.25 -0.9375 86.25 C-0.9375 85.26 -0.9375 84.27 -0.9375 83.25 C-2.9175 83.25 -4.8975 83.25 -6.9375 83.25 C-6.8446875 84.85875 -6.8446875 84.85875 -6.75 86.5 C-6.9375 90.25 -6.9375 90.25 -7.91796875 92.453125 C-11.0557348 95.24494779 -14.44988538 94.82988543 -18.4375 94.75 C-19.59572266 94.77320312 -19.59572266 94.77320312 -20.77734375 94.796875 C-24.10358207 94.77381616 -26.33862416 94.73831415 -28.96875 92.59375 C-29.9375 90.25 -29.9375 90.25 -29.9375 84.25 C-40.1675 84.25 -50.3975 84.25 -60.9375 84.25 C-61.2675 86.56 -61.5975 88.87 -61.9375 91.25 C-62.5975 92.24 -63.2575 93.23 -63.9375 94.25 C-66.82568679 94.60878097 -69.42386187 94.7595968 -72.3125 94.75 C-73.08078125 94.77835937 -73.8490625 94.80671875 -74.640625 94.8359375 C-78.71468752 94.8500346 -80.35212438 94.77593748 -83.4765625 91.96875 C-84.9375 89.25 -84.9375 89.25 -84.9375 85.25 C-86.5153125 85.3428125 -86.5153125 85.3428125 -88.125 85.4375 C-94.12785908 85.14227742 -94.12785908 85.14227742 -96.9375 82.25 C-97.80250903 78.59773966 -97.86681819 74.99142382 -97.9375 71.25 C-98.01291016 69.74566406 -98.01291016 69.74566406 -98.08984375 68.2109375 C-98.40962304 58.31057079 -96.60814315 50.74673029 -90.53515625 42.84375 C-87.73754598 40.05297985 -85.62712468 39.27652403 -81.6875 39.125 C-80.78 39.16625 -79.8725 39.2075 -78.9375 39.25 C-78.9375 36.61 -78.9375 33.97 -78.9375 31.25 C-76.2975 31.25 -73.6575 31.25 -70.9375 31.25 C-70.9375 29.93 -70.9375 28.61 -70.9375 27.25 C-72.608125 27.4975 -72.608125 27.4975 -74.3125 27.75 C-86.8125 29.3125 -86.8125 29.3125 -90.9375 27.25 C-91.89820434 24.36788698 -92.04331883 22.55149956 -92 19.5625 C-91.99097656 18.75425781 -91.98195313 17.94601563 -91.97265625 17.11328125 C-91.95525391 16.19095703 -91.95525391 16.19095703 -91.9375 15.25 C-86.72726778 12.30794799 -81.45989822 10.92979804 -75.66015625 9.55078125 C-74.65778427 9.3108696 -73.65541229 9.07095795 -72.62266541 8.82377625 C-70.49631087 8.31943266 -68.36888217 7.8195994 -66.24047852 7.32397461 C-63.06361861 6.57744963 -59.89665874 5.79623221 -56.72851562 5.01367188 C-43.28985871 1.81182003 -30.79850028 0.59532191 -16.99168396 1.27922058 C-11.42633143 1.20005394 -5.76979599 0.02700899 0 0 Z M-9.9375 7.25 C-9.9375 8.9 -9.9375 10.55 -9.9375 12.25 C-7.6275 12.25 -5.3175 12.25 -2.9375 12.25 C-2.9375 10.6 -2.9375 8.95 -2.9375 7.25 C-5.2475 7.25 -7.5575 7.25 -9.9375 7.25 Z M2.0625 7.25 C2.0625 9.23 2.0625 11.21 2.0625 13.25 C4.06204746 13.29254356 6.06291636 13.29080783 8.0625 13.25 C9.35883621 12.18354885 9.35883621 12.18354885 9.125 9.6875 C9.104375 8.883125 9.08375 8.07875 9.0625 7.25 C6.7525 7.25 4.4425 7.25 2.0625 7.25 Z M-9.9375 18.25 C-9.9375 19.9 -9.9375 21.55 -9.9375 23.25 C-7.6275 23.25 -5.3175 23.25 -2.9375 23.25 C-2.9375 21.6 -2.9375 19.95 -2.9375 18.25 C-5.2475 18.25 -7.5575 18.25 -9.9375 18.25 Z M2.0625 18.25 C2.0625 19.9 2.0625 21.55 2.0625 23.25 C4.0425 23.25 6.0225 23.25 8.0625 23.25 C8.0625 21.6 8.0625 19.95 8.0625 18.25 C6.0825 18.25 4.1025 18.25 2.0625 18.25 Z M-66.9375 35.25 C-66.9375 36.9 -66.9375 38.55 -66.9375 40.25 C-66.2775 40.25 -65.6175 40.25 -64.9375 40.25 C-64.9375 42.56 -64.9375 44.87 -64.9375 47.25 C-64.2775 46.59 -63.6175 45.93 -62.9375 45.25 C-60.94928687 44.85235737 -58.94805661 44.51224651 -56.9375 44.25 C-56.9375 43.59 -56.9375 42.93 -56.9375 42.25 C-54.9575 42.25 -52.9775 42.25 -50.9375 42.25 C-50.6075 41.26 -50.2775 40.27 -49.9375 39.25 C-58.3525 37.27 -58.3525 37.27 -66.9375 35.25 Z " fill="#D67177" transform="translate(98.9375,-0.25)"/>
<path d="M0 0 C0.33 0 0.66 0 1 0 C1 2.64 1 5.28 1 8 C2.65 7.67 4.3 7.34 6 7 C6.12152487 14.73708326 5.84800767 22.307359 5 30 C6.46179687 29.98259766 6.46179687 29.98259766 7.953125 29.96484375 C22.31663623 29.85416897 36.65006049 30.42342624 51 31 C51 30.34 51 29.68 51 29 C56.28 29 61.56 29 67 29 C66.505 28.01 66.505 28.01 66 27 C65.59408989 23.94407675 65.50409708 21.04785278 66 18 C68.62873281 15.44637384 70.05128354 15 73.6875 15 C76 16 76 16 77.3125 18.1875 C78.05550636 21.22707147 78.14500687 23.88235232 78 27 C77.01 27 76.02 27 75 27 C75 27.66 75 28.32 75 29 C76.98 29.495 76.98 29.495 79 30 C79.18451025 45.74487472 79.18451025 45.74487472 78 53 C78.66 53 79.32 53 80 53 C80 54.98 80 56.96 80 59 C77.02119115 59.99293628 74.98398802 60.13406411 71.875 60.125 C70.98554687 60.12757812 70.09609375 60.13015625 69.1796875 60.1328125 C67 60 67 60 66 59 C65.95919217 57.00041636 65.95745644 54.99954746 66 53 C67.32 53 68.64 53 70 53 C70 52.01 70 51.02 70 50 C68.02 50 66.04 50 64 50 C64.061875 51.0725 64.12375 52.145 64.1875 53.25 C64 57 64 57 63.01953125 59.203125 C59.8817652 61.99494779 56.48761462 61.57988543 52.5 61.5 C51.72785156 61.51546875 50.95570312 61.5309375 50.16015625 61.546875 C46.83391793 61.52381616 44.59887584 61.48831415 41.96875 59.34375 C41 57 41 57 41 51 C30.77 51 20.54 51 10 51 C9.67 53.31 9.34 55.62 9 58 C8.34 58.99 7.68 59.98 7 61 C4.11181321 61.35878097 1.51363813 61.5095968 -1.375 61.5 C-2.14328125 61.52835938 -2.9115625 61.55671875 -3.703125 61.5859375 C-7.77718752 61.6000346 -9.41462438 61.52593748 -12.5390625 58.71875 C-14 56 -14 56 -14 52 C-15.5778125 52.0928125 -15.5778125 52.0928125 -17.1875 52.1875 C-23.19035908 51.89227742 -23.19035908 51.89227742 -26 49 C-26.86500903 45.34773966 -26.92931819 41.74142382 -27 38 C-27.05027344 36.99710938 -27.10054687 35.99421875 -27.15234375 34.9609375 C-27.42400438 26.55032451 -26.34586157 17.84270281 -21 11 C-17.59613572 8.77229935 -14.75523055 8.78792977 -10.75 8.875 C-9.67234375 8.89304687 -8.5946875 8.91109375 -7.484375 8.9296875 C-6.25460938 8.96449219 -6.25460938 8.96449219 -5 9 C-5 8.34 -5 7.68 -5 7 C-3.35 7 -1.7 7 0 7 C0 4.69 0 2.38 0 0 Z " fill="#402A2D" transform="translate(28,33)"/>
<path d="M0 0 C4.62 0 9.24 0 14 0 C14.6124699 3.67481939 15.13133557 6.88938243 15.29711914 10.53662109 C15.33708511 11.37703949 15.37705109 12.21745789 15.41822815 13.08334351 C15.45681442 13.97107452 15.4954007 14.85880554 15.53515625 15.7734375 C15.57813339 16.6971817 15.62111053 17.6209259 15.66539001 18.57266235 C15.80112278 21.50663194 15.93188258 24.44079868 16.0625 27.375 C16.15396809 29.37110884 16.24576141 31.36720281 16.33789062 33.36328125 C16.56236024 38.24202329 16.78237186 43.12094818 17 48 C17.39268066 47.04335449 17.78536133 46.08670898 18.18994141 45.10107422 C19.67616676 41.48116411 21.1638179 37.86184128 22.65185547 34.24267578 C23.29025283 32.68944507 23.92828613 31.13606466 24.56591797 29.58251953 C28.62860847 19.68490976 32.7602452 9.82318573 37 0 C42.28 0 47.56 0 53 0 C53.97806857 9.6258248 54.32938745 19.21290116 54.60546875 28.88085938 C54.79758568 34.98554037 55.09698791 40.95734412 56 47 C56.32685791 46.18023682 56.65371582 45.36047363 56.99047852 44.51586914 C62.92158237 29.64691403 68.86266987 14.78538622 75 0 C79.95 0 84.9 0 90 0 C87.44801796 6.47190072 84.78473397 12.86122188 81.91796875 19.19921875 C81.54070145 20.03733597 81.16343414 20.87545319 80.7747345 21.7389679 C79.98159009 23.49984567 79.18744513 25.26027309 78.39233398 27.02026367 C77.19863988 29.66283877 76.00823183 32.30687415 74.81835938 34.95117188 C70.28899657 45.00445787 65.68692301 55.01916929 61 65 C55.39 65 49.78 65 44 65 C42.59983086 62.19966173 42.79978476 59.79381443 42.71875 56.6640625 C42.66267578 54.72466797 42.66267578 54.72466797 42.60546875 52.74609375 C42.56989453 51.37240659 42.53474044 49.9987085 42.5 48.625 C42.26009234 39.38519181 41.89191312 30.20272491 41 21 C40.6376123 21.87100342 40.27522461 22.74200684 39.90185547 23.6394043 C38.52834439 26.937273 37.15258185 30.23418488 35.77539062 33.53051758 C35.18499802 34.94486645 34.59544983 36.35956816 34.00683594 37.7746582 C30.19112449 46.94603972 26.21875542 56.00469019 22 65 C16.06 65 10.12 65 4 65 C2.68 43.55 1.36 22.1 0 0 Z " fill="#CC1821" transform="translate(510,13)"/>
<path d="M0 0 C1.58206057 0.00667536 3.16410534 0.0186375 4.74609375 0.03515625 C5.55240234 0.03966797 6.35871094 0.04417969 7.18945312 0.04882812 C9.18753131 0.06065107 11.18557158 0.07858711 13.18359375 0.09765625 C15.14305851 5.80773656 17.10017855 11.51861318 19.05517578 17.23022461 C19.71990376 19.17119795 20.38526028 21.11195616 21.05126953 23.05249023 C22.01111448 25.8495272 22.96866043 28.64734236 23.92578125 31.4453125 C24.22169159 32.30600845 24.51760193 33.16670441 24.82247925 34.05348206 C26.41090079 38.70479856 27.88059804 43.35821907 29.18359375 48.09765625 C29.29412582 47.52580597 29.4046579 46.95395569 29.51853943 46.36477661 C30.66679434 40.42723021 31.81913371 34.49048709 32.97387695 28.55419922 C33.40461943 26.33695599 33.83431063 24.11950827 34.26293945 21.90185547 C34.87827452 18.719186 35.49735364 15.53726471 36.1171875 12.35546875 C36.30889023 11.35959747 36.50059296 10.3637262 36.69810486 9.337677 C36.87821609 8.41687347 37.05832733 7.49606995 37.24389648 6.54736328 C37.40155991 5.73461945 37.55922333 4.92187561 37.72166443 4.08450317 C38.18359375 2.09765625 38.18359375 2.09765625 39.18359375 0.09765625 C43.47359375 0.09765625 47.76359375 0.09765625 52.18359375 0.09765625 C50.90307572 8.68844088 49.46073629 17.21730171 47.80078125 25.7421875 C47.5816507 26.87798752 47.36252014 28.01378754 47.13674927 29.18400574 C46.44632321 32.75983696 45.75252163 36.33500313 45.05859375 39.91015625 C44.58571263 42.35607633 44.11305441 44.80203951 43.640625 47.24804688 C42.49085341 53.19841731 41.33805713 59.14819439 40.18359375 65.09765625 C34.24359375 65.09765625 28.30359375 65.09765625 22.18359375 65.09765625 C18.25144155 55.72539056 15.11522662 46.11780846 11.93359375 36.47265625 C11.37397901 34.783761 10.81408541 33.09495812 10.25390625 31.40625 C8.89391817 27.30444329 7.53770983 23.20140501 6.18359375 19.09765625 C6.07306168 19.65919907 5.9625296 20.22074188 5.84864807 20.79930115 C4.7014773 26.62338475 3.54897295 32.44639438 2.39331055 38.26879883 C1.96224159 40.4443068 1.53255129 42.62008841 1.10424805 44.79614258 C0.4897575 47.91690207 -0.1296217 51.03665634 -0.75 54.15625 C-0.94170273 55.13540878 -1.13340546 56.11456757 -1.33091736 57.12339783 C-1.60108421 58.47468529 -1.60108421 58.47468529 -1.87670898 59.85327148 C-2.03437241 60.65047104 -2.19203583 61.44767059 -2.35447693 62.26902771 C-2.81640625 64.09765625 -2.81640625 64.09765625 -3.81640625 65.09765625 C-6.00280078 65.17024571 -8.19141014 65.18139408 -10.37890625 65.16015625 C-11.57644531 65.15113281 -12.77398438 65.14210938 -14.0078125 65.1328125 C-15.39806641 65.11541016 -15.39806641 65.11541016 -16.81640625 65.09765625 C-14.18706543 49.98955614 -11.44227675 34.90607864 -8.53665161 19.84875488 C-8.22273279 18.22083448 -7.91013439 16.59265891 -7.59884644 14.9642334 C-7.15977882 12.6706655 -6.7154833 10.37817544 -6.26953125 8.0859375 C-6.07137566 7.04567162 -6.07137566 7.04567162 -5.86921692 5.98439026 C-4.7164584 0.12068727 -4.7164584 0.12068727 0 0 Z " fill="#CB1821" transform="translate(1195.81640625,12.90234375)"/>
<path d="M0 0 C1.58206057 0.00667536 3.16410534 0.0186375 4.74609375 0.03515625 C5.55240234 0.03966797 6.35871094 0.04417969 7.18945312 0.04882812 C9.18753131 0.06065107 11.18557158 0.07858711 13.18359375 0.09765625 C15.14305851 5.80773656 17.10017855 11.51861318 19.05517578 17.23022461 C19.71990376 19.17119795 20.38526028 21.11195616 21.05126953 23.05249023 C22.01111448 25.8495272 22.96866043 28.64734236 23.92578125 31.4453125 C24.22169159 32.30600845 24.51760193 33.16670441 24.82247925 34.05348206 C26.41090079 38.70479856 27.88059804 43.35821907 29.18359375 48.09765625 C29.29412582 47.52580597 29.4046579 46.95395569 29.51853943 46.36477661 C30.66679434 40.42723021 31.81913371 34.49048709 32.97387695 28.55419922 C33.40461943 26.33695599 33.83431063 24.11950827 34.26293945 21.90185547 C34.87827452 18.719186 35.49735364 15.53726471 36.1171875 12.35546875 C36.30889023 11.35959747 36.50059296 10.3637262 36.69810486 9.337677 C36.87821609 8.41687347 37.05832733 7.49606995 37.24389648 6.54736328 C37.40155991 5.73461945 37.55922333 4.92187561 37.72166443 4.08450317 C38.18359375 2.09765625 38.18359375 2.09765625 39.18359375 0.09765625 C43.47359375 0.09765625 47.76359375 0.09765625 52.18359375 0.09765625 C50.90307572 8.68844088 49.46073629 17.21730171 47.80078125 25.7421875 C47.5816507 26.87798752 47.36252014 28.01378754 47.13674927 29.18400574 C46.44632321 32.75983696 45.75252163 36.33500313 45.05859375 39.91015625 C44.58571263 42.35607633 44.11305441 44.80203951 43.640625 47.24804688 C42.49085341 53.19841731 41.33805713 59.14819439 40.18359375 65.09765625 C34.24359375 65.09765625 28.30359375 65.09765625 22.18359375 65.09765625 C18.25144155 55.72539056 15.11522662 46.11780846 11.93359375 36.47265625 C11.37397901 34.783761 10.81408541 33.09495812 10.25390625 31.40625 C8.89391817 27.30444329 7.53770983 23.20140501 6.18359375 19.09765625 C6.07306168 19.65919907 5.9625296 20.22074188 5.84864807 20.79930115 C4.7014773 26.62338475 3.54897295 32.44639438 2.39331055 38.26879883 C1.96224159 40.4443068 1.53255129 42.62008841 1.10424805 44.79614258 C0.4897575 47.91690207 -0.1296217 51.03665634 -0.75 54.15625 C-0.94170273 55.13540878 -1.13340546 56.11456757 -1.33091736 57.12339783 C-1.60108421 58.47468529 -1.60108421 58.47468529 -1.87670898 59.85327148 C-2.03437241 60.65047104 -2.19203583 61.44767059 -2.35447693 62.26902771 C-2.81640625 64.09765625 -2.81640625 64.09765625 -3.81640625 65.09765625 C-6.00280078 65.17024571 -8.19141014 65.18139408 -10.37890625 65.16015625 C-11.57644531 65.15113281 -12.77398438 65.14210938 -14.0078125 65.1328125 C-15.39806641 65.11541016 -15.39806641 65.11541016 -16.81640625 65.09765625 C-14.18706543 49.98955614 -11.44227675 34.90607864 -8.53665161 19.84875488 C-8.22273279 18.22083448 -7.91013439 16.59265891 -7.59884644 14.9642334 C-7.15977882 12.6706655 -6.7154833 10.37817544 -6.26953125 8.0859375 C-6.07137566 7.04567162 -6.07137566 7.04567162 -5.86921692 5.98439026 C-4.7164584 0.12068727 -4.7164584 0.12068727 0 0 Z " fill="#CB1821" transform="translate(991.81640625,12.90234375)"/>
<path d="M0 0 C1.58206057 0.00667536 3.16410534 0.0186375 4.74609375 0.03515625 C5.55240234 0.03966797 6.35871094 0.04417969 7.18945312 0.04882812 C9.18753131 0.06065107 11.18557158 0.07858711 13.18359375 0.09765625 C15.14305851 5.80773656 17.10017855 11.51861318 19.05517578 17.23022461 C19.71990376 19.17119795 20.38526028 21.11195616 21.05126953 23.05249023 C22.01111448 25.8495272 22.96866043 28.64734236 23.92578125 31.4453125 C24.22169159 32.30600845 24.51760193 33.16670441 24.82247925 34.05348206 C26.41090079 38.70479856 27.88059804 43.35821907 29.18359375 48.09765625 C29.29412582 47.52580597 29.4046579 46.95395569 29.51853943 46.36477661 C30.66679434 40.42723021 31.81913371 34.49048709 32.97387695 28.55419922 C33.40461943 26.33695599 33.83431063 24.11950827 34.26293945 21.90185547 C34.87827452 18.719186 35.49735364 15.53726471 36.1171875 12.35546875 C36.30889023 11.35959747 36.50059296 10.3637262 36.69810486 9.337677 C36.87821609 8.41687347 37.05832733 7.49606995 37.24389648 6.54736328 C37.40155991 5.73461945 37.55922333 4.92187561 37.72166443 4.08450317 C38.18359375 2.09765625 38.18359375 2.09765625 39.18359375 0.09765625 C43.47359375 0.09765625 47.76359375 0.09765625 52.18359375 0.09765625 C50.90307572 8.68844088 49.46073629 17.21730171 47.80078125 25.7421875 C47.5816507 26.87798752 47.36252014 28.01378754 47.13674927 29.18400574 C46.44632321 32.75983696 45.75252163 36.33500313 45.05859375 39.91015625 C44.58571263 42.35607633 44.11305441 44.80203951 43.640625 47.24804688 C42.49085341 53.19841731 41.33805713 59.14819439 40.18359375 65.09765625 C34.24359375 65.09765625 28.30359375 65.09765625 22.18359375 65.09765625 C18.25144155 55.72539056 15.11522662 46.11780846 11.93359375 36.47265625 C11.37397901 34.783761 10.81408541 33.09495812 10.25390625 31.40625 C8.89391817 27.30444329 7.53770983 23.20140501 6.18359375 19.09765625 C6.07306168 19.65919907 5.9625296 20.22074188 5.84864807 20.79930115 C4.7014773 26.62338475 3.54897295 32.44639438 2.39331055 38.26879883 C1.96224159 40.4443068 1.53255129 42.62008841 1.10424805 44.79614258 C0.4897575 47.91690207 -0.1296217 51.03665634 -0.75 54.15625 C-0.94170273 55.13540878 -1.13340546 56.11456757 -1.33091736 57.12339783 C-1.60108421 58.47468529 -1.60108421 58.47468529 -1.87670898 59.85327148 C-2.03437241 60.65047104 -2.19203583 61.44767059 -2.35447693 62.26902771 C-2.81640625 64.09765625 -2.81640625 64.09765625 -3.81640625 65.09765625 C-6.00280078 65.17024571 -8.19141014 65.18139408 -10.37890625 65.16015625 C-11.57644531 65.15113281 -12.77398437 65.14210938 -14.0078125 65.1328125 C-15.39806641 65.11541016 -15.39806641 65.11541016 -16.81640625 65.09765625 C-14.18706543 49.98955614 -11.44227675 34.90607864 -8.53665161 19.84875488 C-8.22273279 18.22083448 -7.91013439 16.59265891 -7.59884644 14.9642334 C-7.15977882 12.6706655 -6.7154833 10.37817544 -6.26953125 8.0859375 C-6.07137566 7.04567162 -6.07137566 7.04567162 -5.86921692 5.98439026 C-4.7164584 0.12068727 -4.7164584 0.12068727 0 0 Z " fill="#CB1821" transform="translate(380.81640625,12.90234375)"/>
<path d="M0 0 C0.58910156 0.4125 1.17820312 0.825 1.78515625 1.25 C2.42582031 1.6625 3.06648438 2.075 3.7265625 2.5 C8.93123286 6.32472645 11.37336412 11.00618124 12.78515625 17.25 C14.10269684 30.17088102 11.68678292 41.82400244 3.78515625 52.25 C-3.07697454 59.99497803 -10.48128369 63.95392554 -20.82421875 64.625 C-29.14617008 64.93636831 -37.11904052 65.16868179 -44.21484375 60.25 C-45.065625 59.70666016 -45.065625 59.70666016 -45.93359375 59.15234375 C-50.82159135 55.6181298 -53.4008351 50.59286221 -54.80078125 44.84375 C-56.63013577 33.38439716 -54.61739511 22.27623702 -48.46484375 12.375 C-38.06870584 -1.75441437 -16.30880427 -9.33784419 0 0 Z M-33.90234375 15.8125 C-39.65264764 22.79682929 -40.81740581 30.6003054 -40.56640625 39.4765625 C-40.02935644 43.7132888 -38.86209955 45.88726966 -36.21484375 49.25 C-30.60747405 53.38482566 -24.91949418 52.98668381 -18.21484375 52.25 C-11.67011288 50.21768883 -7.75174862 44.93958353 -4.46484375 39.1875 C-1.68399081 32.6524956 -0.86760871 24.72369896 -2.93359375 17.86328125 C-4.93634339 13.49437982 -6.76735592 11.35405232 -11.21484375 9.25 C-20.53190014 8.06058855 -27.26481212 9.01006075 -33.90234375 15.8125 Z " fill="#CC1821" transform="translate(1101.21484375,14.75)"/>
<path d="M0 0 C0.58910156 0.4125 1.17820312 0.825 1.78515625 1.25 C2.42582031 1.6625 3.06648437 2.075 3.7265625 2.5 C8.93123286 6.32472645 11.37336412 11.00618124 12.78515625 17.25 C14.10269684 30.17088102 11.68678292 41.82400244 3.78515625 52.25 C-3.07697454 59.99497803 -10.48128369 63.95392554 -20.82421875 64.625 C-29.14617008 64.93636831 -37.11904052 65.16868179 -44.21484375 60.25 C-45.065625 59.70666016 -45.065625 59.70666016 -45.93359375 59.15234375 C-50.82159135 55.6181298 -53.4008351 50.59286221 -54.80078125 44.84375 C-56.63013577 33.38439716 -54.61739511 22.27623702 -48.46484375 12.375 C-38.06870584 -1.75441437 -16.30880427 -9.33784419 0 0 Z M-33.90234375 15.8125 C-39.65264764 22.79682929 -40.81740581 30.6003054 -40.56640625 39.4765625 C-40.02935644 43.7132888 -38.86209955 45.88726966 -36.21484375 49.25 C-30.60747405 53.38482566 -24.91949418 52.98668381 -18.21484375 52.25 C-11.67011288 50.21768883 -7.75174862 44.93958353 -4.46484375 39.1875 C-1.68399081 32.6524956 -0.86760871 24.72369896 -2.93359375 17.86328125 C-4.93634339 13.49437982 -6.76735592 11.35405232 -11.21484375 9.25 C-20.53190014 8.06058855 -27.26481212 9.01006075 -33.90234375 15.8125 Z " fill="#CC1821" transform="translate(892.21484375,14.75)"/>
<path d="M0 0 C0.58910156 0.4125 1.17820312 0.825 1.78515625 1.25 C2.42582031 1.6625 3.06648438 2.075 3.7265625 2.5 C8.93123286 6.32472645 11.37336412 11.00618124 12.78515625 17.25 C14.10269684 30.17088102 11.68678292 41.82400244 3.78515625 52.25 C-3.07697454 59.99497803 -10.48128369 63.95392554 -20.82421875 64.625 C-29.14617008 64.93636831 -37.11904052 65.16868179 -44.21484375 60.25 C-45.065625 59.70666016 -45.065625 59.70666016 -45.93359375 59.15234375 C-50.82159135 55.6181298 -53.4008351 50.59286221 -54.80078125 44.84375 C-56.63013577 33.38439716 -54.61739511 22.27623702 -48.46484375 12.375 C-38.06870584 -1.75441437 -16.30880427 -9.33784419 0 0 Z M-33.90234375 15.8125 C-39.65264764 22.79682929 -40.81740581 30.6003054 -40.56640625 39.4765625 C-40.02935644 43.7132888 -38.86209955 45.88726966 -36.21484375 49.25 C-30.60747405 53.38482566 -24.91949418 52.98668381 -18.21484375 52.25 C-11.67011288 50.21768883 -7.75174862 44.93958353 -4.46484375 39.1875 C-1.68399081 32.6524956 -0.86760871 24.72369896 -2.93359375 17.86328125 C-4.93634339 13.49437982 -6.76735592 11.35405232 -11.21484375 9.25 C-20.53190014 8.06058855 -27.26481212 9.01006075 -33.90234375 15.8125 Z " fill="#CC1821" transform="translate(490.21484375,14.75)"/>
<path d="M0 0 C2.04385169 -0.01698028 4.0859836 -0.06080263 6.12939453 -0.10522461 C16.10257868 -0.16884158 25.06584207 0.68234844 32.71142578 7.60766602 C38.4626359 14.04681993 40.02188621 21.57744759 39.85986328 30.09985352 C39.17121028 40.28466888 36.10511148 49.40812439 28.64892578 56.60766602 C17.24918621 65.61220542 6.34090915 65.96166631 -7.53857422 65.60766602 C-9.2664062 65.58252861 -10.99427378 65.55972513 -12.72216797 65.53930664 C-16.91186585 65.4847947 -21.0998162 65.39883235 -25.28857422 65.29516602 C-22.6592334 50.18706591 -19.91444472 35.10358841 -17.00881958 20.04626465 C-16.69490076 18.41834425 -16.38230236 16.79016868 -16.0710144 15.16174316 C-15.63194678 12.86817527 -15.18765127 10.57568521 -14.74169922 8.28344727 C-14.54354362 7.24318138 -14.54354362 7.24318138 -14.34138489 6.18190002 C-12.70477816 -2.14297953 -7.66261994 0.04420395 0 0 Z M-0.28857422 11.29516602 C-1.43295038 16.77508432 -2.57213831 22.25604589 -3.70654297 27.73803711 C-4.09314026 29.60259065 -4.4811508 31.46685174 -4.87060547 33.33081055 C-5.43032149 36.01087936 -5.98493792 38.69196057 -6.53857422 41.37329102 C-6.71356445 42.20572327 -6.88855469 43.03815552 -7.06884766 43.89581299 C-7.22901367 44.67632019 -7.38917969 45.45682739 -7.55419922 46.26098633 C-7.69631836 46.94493469 -7.8384375 47.62888306 -7.98486328 48.33355713 C-8.39057719 50.62315284 -8.39057719 50.62315284 -8.28857422 54.29516602 C1.05785285 54.65311429 10.23400492 54.55533232 17.71142578 48.29516602 C23.21747975 42.66106428 25.78869206 37.12424564 26.14892578 29.29516602 C25.96355736 24.27477133 24.83873825 20.27789042 21.71142578 16.29516602 C15.35368037 10.86590323 7.62954198 11.26241269 -0.28857422 11.29516602 Z " fill="#CC1821" transform="translate(932.28857421875,12.704833984375)"/>
<path d="M0 0 C2.04385169 -0.01698028 4.0859836 -0.06080263 6.12939453 -0.10522461 C16.10257868 -0.16884158 25.06584207 0.68234844 32.71142578 7.60766602 C38.4626359 14.04681993 40.02188621 21.57744759 39.85986328 30.09985352 C39.17121028 40.28466888 36.10511148 49.40812439 28.64892578 56.60766602 C17.24918621 65.61220542 6.34090915 65.96166631 -7.53857422 65.60766602 C-9.2664062 65.58252861 -10.99427378 65.55972513 -12.72216797 65.53930664 C-16.91186585 65.4847947 -21.0998162 65.39883235 -25.28857422 65.29516602 C-22.6592334 50.18706591 -19.91444472 35.10358841 -17.00881958 20.04626465 C-16.69490076 18.41834425 -16.38230236 16.79016868 -16.0710144 15.16174316 C-15.63194678 12.86817527 -15.18765127 10.57568521 -14.74169922 8.28344727 C-14.54354362 7.24318138 -14.54354362 7.24318138 -14.34138489 6.18190002 C-12.70477816 -2.14297953 -7.66261994 0.04420395 0 0 Z M-0.28857422 11.29516602 C-1.43295038 16.77508432 -2.57213831 22.25604589 -3.70654297 27.73803711 C-4.09314026 29.60259065 -4.4811508 31.46685174 -4.87060547 33.33081055 C-5.43032149 36.01087936 -5.98493792 38.69196057 -6.53857422 41.37329102 C-6.71356445 42.20572327 -6.88855469 43.03815552 -7.06884766 43.89581299 C-7.22901367 44.67632019 -7.38917969 45.45682739 -7.55419922 46.26098633 C-7.69631836 46.94493469 -7.8384375 47.62888306 -7.98486328 48.33355713 C-8.39057719 50.62315284 -8.39057719 50.62315284 -8.28857422 54.29516602 C1.05785285 54.65311429 10.23400492 54.55533232 17.71142578 48.29516602 C23.21747975 42.66106428 25.78869206 37.12424564 26.14892578 29.29516602 C25.96355736 24.27477133 24.83873825 20.27789042 21.71142578 16.29516602 C15.35368037 10.86590323 7.62954198 11.26241269 -0.28857422 11.29516602 Z " fill="#CC1821" transform="translate(253.28857421875,12.704833984375)"/>
<path d="M0 0 C1.93166016 0.01740234 1.93166016 0.01740234 3.90234375 0.03515625 C5.19269531 0.04417969 6.48304687 0.05320312 7.8125 0.0625 C8.81152344 0.07410156 9.81054688 0.08570313 10.83984375 0.09765625 C10.22266964 7.13344106 8.91793701 13.93826712 7.4609375 20.83984375 C6.74620651 24.03606188 6.74620651 24.03606188 6.83984375 27.09765625 C7.57847656 26.40800781 8.31710937 25.71835937 9.078125 25.0078125 C15.00335547 19.5077813 20.98749659 14.17153009 27.35546875 9.1796875 C29.8442339 7.21227385 29.8442339 7.21227385 31.63671875 4.984375 C34.17004707 2.08499235 36.10178851 0.32882997 40.03515625 -0.19433594 C45.65406589 -0.50094053 51.2286599 -0.25869918 56.83984375 0.09765625 C49.44350559 7.57240082 41.57155379 14.39744357 33.40234375 21.01171875 C30.16245289 23.64906893 26.99666576 26.36174384 23.83984375 29.09765625 C24.278125 29.86464844 24.71640625 30.63164063 25.16796875 31.421875 C26.15721656 33.15305867 27.14641322 34.88427177 28.13476562 36.6159668 C30.43065801 40.63726011 32.73408171 44.65412064 35.04296875 48.66796875 C35.58791992 49.61712158 36.13287109 50.56627441 36.69433594 51.54418945 C37.78704132 53.44734502 38.88142985 55.34953523 39.97753906 57.25073242 C40.47866211 58.1244751 40.97978516 58.99821777 41.49609375 59.8984375 C41.94791016 60.68387939 42.39972656 61.46932129 42.86523438 62.27856445 C43.83984375 64.09765625 43.83984375 64.09765625 43.83984375 65.09765625 C29.72720967 66.60613258 29.72720967 66.60613258 25.7578125 63.43359375 C24.19109634 60.73360451 23.04381162 57.97894688 21.83984375 55.09765625 C20.27540403 52.22916865 18.61337352 49.41845272 16.96484375 46.59765625 C12.83984375 39.43141888 12.83984375 39.43141888 12.83984375 37.09765625 C8.41114206 38.71215999 4.71062414 40.25115258 2.62841797 44.66650391 C1.8354442 47.74023095 1.26215772 50.77323741 0.77734375 53.91015625 C0.57947266 54.98458984 0.38160156 56.05902344 0.17773438 57.16601562 C-0.30292999 59.80380785 -0.73629841 62.45014221 -1.16015625 65.09765625 C-6.11015625 65.09765625 -11.06015625 65.09765625 -16.16015625 65.09765625 C-13.52489173 49.99042552 -10.78606243 34.90626355 -7.88040161 19.84875488 C-7.56648279 18.22083448 -7.25388439 16.59265891 -6.94259644 14.9642334 C-6.50352882 12.6706655 -6.0592333 10.37817544 -5.61328125 8.0859375 C-5.41512566 7.04567162 -5.41512566 7.04567162 -5.21296692 5.98439026 C-4.06115439 0.12549921 -4.06115439 0.12549921 0 0 Z " fill="#CC1821" transform="translate(1289.16015625,12.90234375)"/>
<path d="M0 0 C0.85142578 -0.02449219 1.70285156 -0.04898437 2.58007812 -0.07421875 C9.55536632 -0.10609364 15.78719117 1.33936574 21.10424805 6.08618164 C24.43083462 9.58204709 25.9463699 12.43183294 26.1875 17.375 C24.41800388 17.87971197 22.64684777 18.37860685 20.875 18.875 C19.88886719 19.1534375 18.90273437 19.431875 17.88671875 19.71875 C15.1875 20.375 15.1875 20.375 12.1875 20.375 C10.8148318 18.40178947 9.48322383 16.39956848 8.1875 14.375 C4.75249301 12.08499534 3.30021981 12.07751936 -0.75 12.0625 C-1.79027344 12.04574219 -2.83054687 12.02898438 -3.90234375 12.01171875 C-7.15426238 12.41766296 -8.53787823 13.04066262 -10.8125 15.375 C-11.14647787 18.50086875 -11.14647787 18.50086875 -10.8125 21.375 C-4.5784413 24.81009357 1.81878254 26.96145323 8.6015625 29.03125 C13.57961482 30.89666394 18.11317637 33.08041836 20.5625 38 C22.98438482 43.4746808 23.16768474 48.86471339 21.5625 54.61328125 C19.24873767 60.09813749 15.57176625 63.00849115 10.1875 65.375 C4.22423341 67.5187566 -1.31921855 67.74140316 -7.625 67.75 C-8.55892578 67.77449219 -9.49285156 67.79898438 -10.45507812 67.82421875 C-17.22322621 67.8523998 -22.82874843 66.62166363 -28.8125 63.375 C-31.3125 60.875 -31.3125 60.875 -32.8125 58.375 C-33.225 57.715 -33.6375 57.055 -34.0625 56.375 C-34.97290138 53.94726299 -34.95537008 51.94666137 -34.8125 49.375 C-25.40247722 47.07887244 -25.40247722 47.07887244 -20.8125 47.375 C-20.4 48.32375 -19.9875 49.2725 -19.5625 50.25 C-17.67878316 53.61378007 -17.29974876 54.15475209 -13.8125 55.375 C-10.24675219 55.73035016 -10.24675219 55.73035016 -6.375 55.6875 C-4.42787109 55.71263672 -4.42787109 55.71263672 -2.44140625 55.73828125 C1.34586255 55.3591467 3.22600905 54.71882431 6.1875 52.375 C7.52300847 49.52872409 7.52300847 49.52872409 7.1875 46.375 C3.28253391 41.35880108 -0.88536923 39.99289625 -6.75 38.3125 C-13.6222752 36.29986485 -19.23666017 34.29892629 -24.125 28.75 C-26.65968627 23.68062745 -27.69240757 18.70359773 -26.21875 13.12890625 C-23.54050654 7.0220494 -19.21677628 3.82016362 -13.19921875 1.265625 C-8.74899256 0.0953233 -4.58279636 0.0068451 0 0 Z " fill="#CC1821" transform="translate(1150.8125,11.625)"/>
<path d="M0 0 C0.73190552 -0.00807175 1.46381104 -0.01614349 2.21789551 -0.02445984 C3.77479675 -0.03832456 5.33172869 -0.04903598 6.88867188 -0.05688477 C9.24410213 -0.07394962 11.59807344 -0.11779123 13.953125 -0.16210938 C30.84607138 -0.33835876 30.84607138 -0.33835876 37.38085938 5.72167969 C42.15379439 11.10371311 42.12756215 16.04832331 42.05859375 22.9375 C41.53646234 29.15159914 39.31461859 32.70491266 34.96875 37.05078125 C27.0105647 42.51228097 20.85009723 42.62804396 11.34375 42.42578125 C10.13525391 42.41224609 8.92675781 42.39871094 7.68164062 42.38476562 C4.71437918 42.34958071 1.74805063 42.30034821 -1.21875 42.23828125 C-1.27281006 42.80023193 -1.32687012 43.36218262 -1.38256836 43.94116211 C-2.12853205 51.21068137 -3.62428744 58.09786194 -5.21875 65.23828125 C-10.16875 65.23828125 -15.11875 65.23828125 -20.21875 65.23828125 C-17.58348548 50.13105052 -14.84465618 35.04688855 -11.93899536 19.98937988 C-11.62507654 18.36145948 -11.31247814 16.73328391 -11.00119019 15.1048584 C-10.56212257 12.8112905 -10.11782705 10.51880044 -9.671875 8.2265625 C-9.47371941 7.18629662 -9.47371941 7.18629662 -9.27156067 6.12501526 C-7.96797864 -0.50587726 -6.30358563 0.06555436 0 0 Z M4.78125 11.23828125 C3.46125 17.83828125 2.14125 24.43828125 0.78125 31.23828125 C13.61665272 31.93665377 13.61665272 31.93665377 25.28125 27.48828125 C27.1973076 24.61419485 27.71071278 22.69460525 27.78125 19.23828125 C26.17713152 15.70922058 25.03965638 14.41055217 21.78125 12.23828125 C17.98092823 11.20889256 14.39237068 11.13266454 10.46875 11.17578125 C8.591875 11.19640625 6.715 11.21703125 4.78125 11.23828125 Z " fill="#CC1821" transform="translate(791.21875,12.76171875)"/>
<path d="M0 0 C5.94 0 11.88 0 18 0 C19.43510385 8.32714151 20.86950799 16.6544026 22.30266571 24.98187923 C22.96809952 28.84826596 23.63384513 32.71459847 24.30029297 36.58081055 C24.94292115 40.30890699 25.58474382 44.03714128 26.22599792 47.76547432 C26.47131913 49.19094388 26.71693515 50.61636273 26.96284485 52.04173088 C27.30607841 54.03151272 27.6481854 56.02148879 27.99023438 58.01147461 C28.18564819 59.14620712 28.38106201 60.28093964 28.58239746 61.45005798 C29 64 29 64 29 65 C24.05 65 19.1 65 14 65 C12.8432556 59.07168496 12 54.07056458 12 48 C4.08 48.33 -3.84 48.66 -12 49 C-14.64 54.28 -17.28 59.56 -20 65 C-24.95 65 -29.9 65 -35 65 C-33.62807169 60.88421507 -32.60598717 58.00353242 -30.5234375 54.40234375 C-30.02513428 53.53222656 -29.52683105 52.66210938 -29.01342773 51.765625 C-28.47274658 50.83234375 -27.93206543 49.8990625 -27.375 48.9375 C-26.20556087 46.89537257 -25.03766889 44.8523586 -23.87109375 42.80859375 C-23.24831543 41.71788574 -22.62553711 40.62717773 -21.98388672 39.50341797 C-18.40493159 33.20444801 -14.92735979 26.84860047 -11.4375 20.5 C-10.42082338 18.65051127 -9.40409624 16.80105109 -8.38682556 14.95188904 C-7.4960198 13.33225127 -6.60624726 11.71204534 -5.71655273 10.09179688 C-3.83991844 6.71166649 -1.91814254 3.35674945 0 0 Z M6 14 C3.99321599 17.62128443 1.9957352 21.24761643 0 24.875 C-0.57234375 25.90753906 -1.1446875 26.94007812 -1.734375 28.00390625 C-2.54648437 29.48310547 -2.54648437 29.48310547 -3.375 30.9921875 C-3.87773437 31.90339355 -4.38046875 32.81459961 -4.8984375 33.75341797 C-6.14675095 35.8822724 -6.14675095 35.8822724 -6 38 C-0.72 38 4.56 38 10 38 C9.51879078 29.81944334 8.89330905 21.97763231 7 14 C6.67 14 6.34 14 6 14 Z " fill="#CC1821" transform="translate(328,13)"/>
<path d="M0 0 C3.90117552 3.09989673 7.14285412 6.75075273 8.8828125 11.49609375 C8.8828125 12.81609375 8.8828125 14.13609375 8.8828125 15.49609375 C7.30367235 16.02950559 5.71926863 16.54735138 4.1328125 17.05859375 C3.25109375 17.34863281 2.369375 17.63867188 1.4609375 17.9375 C-1.24798554 18.52443333 -2.58634794 18.58545513 -5.1171875 17.49609375 C-6.46996865 15.50919644 -7.80287055 13.50864157 -9.1171875 11.49609375 C-13.9000102 8.32522017 -19.62175551 8.91914551 -25.1171875 9.49609375 C-30.3301244 11.15218923 -34.2934802 14.87266092 -37.1171875 19.49609375 C-40.67573161 26.68463868 -41.39105509 34.89700132 -39.61328125 42.7109375 C-38.05725926 46.91664265 -36.04436998 48.5715512 -32.1171875 50.49609375 C-26.30964444 51.45734226 -20.75657613 51.36522826 -15.6171875 48.30859375 C-12.57777607 46.09235625 -10.25349967 43.611549 -8.1171875 40.49609375 C-3.36237104 41.07243514 -0.14670538 43.04677896 3.8828125 45.49609375 C-0.15522219 53.74041457 -6.26259228 59.70598308 -15.015625 62.8359375 C-24.22419774 64.79594857 -35.48353389 65.11307639 -44.0703125 60.87890625 C-50.28149301 56.68280339 -53.89320819 51.45693842 -55.68359375 44.1953125 C-57.67491327 31.79890002 -55.31356957 19.84947176 -48.1171875 9.49609375 C-37.60404839 -3.84026686 -14.89521779 -9.16029944 0 0 Z " fill="#CC1821" transform="translate(679.1171875,15.50390625)"/>
<path d="M0 0 C15.84 0 31.68 0 48 0 C45.70199147 11.49004267 45.70199147 11.49004267 40.6875 16.3125 C40.1613208 16.85028076 39.6351416 17.38806152 39.09301758 17.94213867 C37.41444465 19.64843614 35.7097458 21.32498944 34 23 C32.8528668 24.14453199 31.70702903 25.29036384 30.5625 26.4375 C28.88395686 28.11797499 27.20374318 29.79642758 25.51538086 31.46704102 C22.64834462 34.30977666 19.88003035 37.18264358 17.25 40.25 C13.39001303 44.70383112 9.16749992 48.83250008 5 53 C16.22 53.33 27.44 53.66 39 54 C38 63 38 63 37 65 C19.51 65 2.02 65 -16 65 C-13.75 53.75 -13.75 53.75 -9.25 49.25 C-8.77336914 48.76176758 -8.29673828 48.27353516 -7.80566406 47.77050781 C-6.22319236 46.15965097 -4.61350494 44.5797339 -3 43 C-1.80076332 41.80340481 -0.60288204 40.60544992 0.59375 39.40625 C2.41729879 37.58075323 4.24259937 35.75732938 6.07592773 33.94165039 C9.0993017 30.94171019 12.03917359 27.92411992 14.8125 24.6875 C18.64746603 20.25097067 22.85332923 16.14667077 27 12 C17.43 11.67 7.86 11.34 -2 11 C-1.34 7.37 -0.68 3.74 0 0 Z " fill="#CC1821" transform="translate(700,13)"/>
<path d="M0 0 C15.84 0 31.68 0 48 0 C45.70199147 11.49004267 45.70199147 11.49004267 40.6875 16.3125 C40.1613208 16.85028076 39.6351416 17.38806152 39.09301758 17.94213867 C37.41444465 19.64843614 35.7097458 21.32498944 34 23 C32.8528668 24.14453199 31.70702903 25.29036384 30.5625 26.4375 C28.88395686 28.11797499 27.20374318 29.79642758 25.51538086 31.46704102 C22.64834462 34.30977666 19.88003035 37.18264358 17.25 40.25 C13.39001303 44.70383112 9.16749992 48.83250008 5 53 C16.22 53.33 27.44 53.66 39 54 C38 63 38 63 37 65 C19.51 65 2.02 65 -16 65 C-13.75 53.75 -13.75 53.75 -9.25 49.25 C-8.77336914 48.76176758 -8.29673828 48.27353516 -7.80566406 47.77050781 C-6.22319236 46.15965097 -4.61350494 44.5797339 -3 43 C-1.80076332 41.80340481 -0.60288204 40.60544992 0.59375 39.40625 C2.41729879 37.58075323 4.24259937 35.75732938 6.07592773 33.94165039 C9.0993017 30.94171019 12.03917359 27.92411992 14.8125 24.6875 C18.64746603 20.25097067 22.85332923 16.14667077 27 12 C17.43 11.67 7.86 11.34 -2 11 C-1.34 7.37 -0.68 3.74 0 0 Z " fill="#CC1821" transform="translate(183,13)"/>
<path d="M0 0 C1.93166016 0.01740234 1.93166016 0.01740234 3.90234375 0.03515625 C5.19269531 0.04417969 6.48304687 0.05320312 7.8125 0.0625 C8.81152344 0.07410156 9.81054688 0.08570313 10.83984375 0.09765625 C10.14096824 7.58362132 8.80828373 14.85714828 7.3359375 22.2265625 C6.97182518 24.07192848 6.97182518 24.07192848 6.60035706 25.95457458 C5.96023846 29.19529007 5.31692224 32.43534822 4.67199707 35.67510986 C4.01232639 38.99315339 3.35693974 42.31204273 2.70117188 45.63085938 C1.41797211 52.12057236 0.13015117 58.60935286 -1.16015625 65.09765625 C-6.11015625 65.09765625 -11.06015625 65.09765625 -16.16015625 65.09765625 C-13.52489173 49.99042552 -10.78606243 34.90626355 -7.88040161 19.84875488 C-7.56648279 18.22083448 -7.25388439 16.59265891 -6.94259644 14.9642334 C-6.50352882 12.6706655 -6.0592333 10.37817544 -5.61328125 8.0859375 C-5.41512566 7.04567162 -5.41512566 7.04567162 -5.21296692 5.98439026 C-4.06115439 0.12549921 -4.06115439 0.12549921 0 0 Z " fill="#CC1821" transform="translate(1357.16015625,12.90234375)"/>
<path d="M0 0 C1.93166016 0.01740234 1.93166016 0.01740234 3.90234375 0.03515625 C5.19269531 0.04417969 6.48304687 0.05320312 7.8125 0.0625 C8.81152344 0.07410156 9.81054688 0.08570313 10.83984375 0.09765625 C10.14096824 7.58362132 8.80828373 14.85714828 7.3359375 22.2265625 C6.97182518 24.07192848 6.97182518 24.07192848 6.60035706 25.95457458 C5.96023846 29.19529007 5.31692224 32.43534822 4.67199707 35.67510986 C4.01232639 38.99315339 3.35693974 42.31204273 2.70117188 45.63085938 C1.41797211 52.12057236 0.13015117 58.60935286 -1.16015625 65.09765625 C-6.11015625 65.09765625 -11.06015625 65.09765625 -16.16015625 65.09765625 C-13.52489173 49.99042552 -10.78606243 34.90626355 -7.88040161 19.84875488 C-7.56648279 18.22083448 -7.25388439 16.59265891 -6.94259644 14.9642334 C-6.50352882 12.6706655 -6.0592333 10.37817544 -5.61328125 8.0859375 C-5.41512566 7.04567162 -5.41512566 7.04567162 -5.21296692 5.98439026 C-4.06115439 0.12549921 -4.06115439 0.12549921 0 0 Z " fill="#CC1821" transform="translate(1263.16015625,12.90234375)"/>
<path d="M0 0 C1.93166016 0.01740234 1.93166016 0.01740234 3.90234375 0.03515625 C5.19269531 0.04417969 6.48304688 0.05320312 7.8125 0.0625 C8.81152344 0.07410156 9.81054688 0.08570313 10.83984375 0.09765625 C10.14096824 7.58362132 8.80828373 14.85714828 7.3359375 22.2265625 C6.97182518 24.07192848 6.97182518 24.07192848 6.60035706 25.95457458 C5.96023846 29.19529007 5.31692224 32.43534822 4.67199707 35.67510986 C4.01232639 38.99315339 3.35693974 42.31204273 2.70117188 45.63085938 C1.41797211 52.12057236 0.13015117 58.60935286 -1.16015625 65.09765625 C-6.11015625 65.09765625 -11.06015625 65.09765625 -16.16015625 65.09765625 C-13.52489173 49.99042552 -10.78606243 34.90626355 -7.88040161 19.84875488 C-7.56648279 18.22083448 -7.25388439 16.59265891 -6.94259644 14.9642334 C-6.50352882 12.6706655 -6.0592333 10.37817544 -5.61328125 8.0859375 C-5.41512566 7.04567162 -5.41512566 7.04567162 -5.21296692 5.98439026 C-4.06115439 0.12549921 -4.06115439 0.12549921 0 0 Z " fill="#CC1821" transform="translate(610.16015625,12.90234375)"/>
<path d="M0 0 C0.33 0 0.66 0 1 0 C1 2.64 1 5.28 1 8 C2.65 7.67 4.3 7.34 6 7 C6.12170298 14.74842287 5.81136288 22.29205268 5 30 C10.94 30 16.88 30 23 30 C23 30.33 23 30.66 23 31 C19.04 31 15.08 31 11 31 C11 31.66 11 32.32 11 33 C23.87 33 36.74 33 50 33 C48.95545051 37.17819796 48.65699677 37.65374433 45.5 40.125 C42.8119616 42.19887681 42.8119616 42.19887681 41 45 C32.90922949 45.09568585 24.83323973 45.08334915 16.75 44.6875 C15.54859375 44.62949219 14.3471875 44.57148437 13.109375 44.51171875 C9.84046763 43.9737453 8.32365217 43.32940378 6 41 C6 40.34 6 39.68 6 39 C4.68 38.67 3.36 38.34 2 38 C2 37.34 2 36.68 2 36 C-1.96 36.66 -5.92 37.32 -10 38 C-9.67 36.68 -9.34 35.36 -9 34 C-3.555 33.505 -3.555 33.505 2 33 C2 25.74 2 18.48 2 11 C-7.25479205 10.30979133 -7.25479205 10.30979133 -15.296875 13.98828125 C-19.26671353 20.62105601 -19.73382958 27.37248285 -19.89453125 34.91015625 C-20 38 -20 38 -21 40 C-20.34 40 -19.68 40 -19 40 C-19 40.66 -19 41.32 -19 42 C-19.66 42 -20.32 42 -21 42 C-21 43.32 -21 44.64 -21 46 C-19.02 46 -17.04 46 -15 46 C-15 46.99 -15 47.98 -15 49 C-18.66666667 49 -22.33333333 49 -26 49 C-29.05271874 21.30747999 -29.05271874 21.30747999 -21 11 C-17.59613572 8.77229935 -14.75523055 8.78792977 -10.75 8.875 C-9.67234375 8.89304687 -8.5946875 8.91109375 -7.484375 8.9296875 C-6.25460938 8.96449219 -6.25460938 8.96449219 -5 9 C-5 8.34 -5 7.68 -5 7 C-3.35 7 -1.7 7 0 7 C0 4.69 0 2.38 0 0 Z " fill="#3C3335" transform="translate(28,33)"/>
<path d="M0 0 C1.89758004 2.70040237 1.98382213 4.08310081 1.625 7.3125 C-7.83975527 10.62516434 -16.86320184 13.3102083 -26.9375 13.75 C-33.69817286 14.07060923 -39.21701779 15.55997157 -45.375 18.3125 C-44.385 18.6425 -43.395 18.9725 -42.375 19.3125 C-42.375 20.3025 -42.375 21.2925 -42.375 22.3125 C-57.80357143 24.59821429 -57.80357143 24.59821429 -62.375 22.3125 C-63.33570434 19.43038698 -63.48081883 17.61399956 -63.4375 14.625 C-63.42847656 13.81675781 -63.41945313 13.00851563 -63.41015625 12.17578125 C-63.39855469 11.56089844 -63.38695312 10.94601562 -63.375 10.3125 C-58.07482536 7.29902278 -52.66232342 5.94258654 -46.75 4.5625 C-45.80898438 4.32917969 -44.86796875 4.09585937 -43.8984375 3.85546875 C-42.9909375 3.64019531 -42.0834375 3.42492187 -41.1484375 3.203125 C-40.32778809 3.00750977 -39.50713867 2.81189453 -38.66162109 2.61035156 C-36.25204344 2.29648388 -34.66760671 2.56386688 -32.375 3.3125 C-33.365 3.3125 -34.355 3.3125 -35.375 3.3125 C-35.375 3.9725 -35.375 4.6325 -35.375 5.3125 C-33.56206911 5.17212479 -31.7496557 5.02505111 -29.9375 4.875 C-28.92816406 4.79378906 -27.91882812 4.71257813 -26.87890625 4.62890625 C-24.43859221 4.58038532 -24.43859221 4.58038532 -23.375 3.3125 C-22.281875 3.18875 -21.18875 3.065 -20.0625 2.9375 C-16.34566866 2.30752859 -15.1721848 1.62741156 -12.375 -0.6875 C-8.06755651 -2.26689595 -3.83010085 -2.72138744 0 0 Z " fill="#CB3C45" transform="translate(70.375,4.6875)"/>
<path d="M0 0 C3.4959375 0.37125 3.4959375 0.37125 7.0625 0.75 C7.0625 8.01 7.0625 15.27 7.0625 22.75 C3.4325 23.41 -0.1975 24.07 -3.9375 24.75 C-3.9375 25.41 -3.9375 26.07 -3.9375 26.75 C-2.9475 26.42 -1.9575 26.09 -0.9375 25.75 C0.45689664 25.68334624 1.85419875 25.66461801 3.25 25.6875 C5.1371875 25.7184375 5.1371875 25.7184375 7.0625 25.75 C7.3925 26.41 7.7225 27.07 8.0625 27.75 C9.0525 28.08 10.0425 28.41 11.0625 28.75 C12.44826923 30.37332967 13.78891268 32.03724465 15.0625 33.75 C13.0825 34.245 13.0825 34.245 11.0625 34.75 C10.4025 33.1 9.7425 31.45 9.0625 29.75 C4.7725 30.41 0.4825 31.07 -3.9375 31.75 C-5.2575 36.37 -6.5775 40.99 -7.9375 45.75 C-8.2675 44.43 -8.5975 43.11 -8.9375 41.75 C-10.01 41.79125 -11.0825 41.8325 -12.1875 41.875 C-15.9375 41.75 -15.9375 41.75 -19.9375 39.75 C-19.6075 30.51 -19.2775 21.27 -18.9375 11.75 C-18.6075 11.75 -18.2775 11.75 -17.9375 11.75 C-17.6075 20.33 -17.2775 28.91 -16.9375 37.75 C-14.6275 38.08 -12.3175 38.41 -9.9375 38.75 C-9.9375 37.76 -9.9375 36.77 -9.9375 35.75 C-11.9175 35.75 -13.8975 35.75 -15.9375 35.75 C-15.9375 34.43 -15.9375 33.11 -15.9375 31.75 C-15.2775 31.75 -14.6175 31.75 -13.9375 31.75 C-13.9375 31.09 -13.9375 30.43 -13.9375 29.75 C-14.5975 29.75 -15.2575 29.75 -15.9375 29.75 C-16.01739506 20.11693873 -15.86841719 11.17484169 -10.45703125 2.82421875 C-7.12723481 0.08294447 -4.15818556 -0.15145857 0 0 Z " fill="#D1D6D8" transform="translate(22.9375,43.25)"/>
<path d="M0 0 C0.66 1.32 1.32 2.64 2 4 C3.19753906 3.98839844 4.39507812 3.97679688 5.62890625 3.96484375 C15.80668311 3.89768448 25.85529604 4.15081701 36 5 C36 6.32 36 7.64 36 9 C35.34 9 34.68 9 34 9 C34 9.66 34 10.32 34 11 C24.76 11 15.52 11 6 11 C5.67 13.31 5.34 15.62 5 18 C4.34 18.99 3.68 19.98 3 21 C0.09941628 21.30344568 -2.54074295 21.41805667 -5.4375 21.375 C-6.21416016 21.38660156 -6.99082031 21.39820312 -7.79101562 21.41015625 C-13.5093678 21.38060404 -13.5093678 21.38060404 -15.71899414 19.66650391 C-17.92534443 16.7961881 -17.39168683 14.52518151 -17 11 C-15.84862061 7.58075211 -14.48197488 4.28813176 -13 1 C-8.62426048 0.40667939 -4.42471556 -0.13827236 0 0 Z " fill="#363637" transform="translate(32,73)"/>
<path d="M0 0 C0.76530029 0.0407666 1.53060059 0.0815332 2.3190918 0.12353516 C3.15504883 0.16736328 3.99100586 0.21119141 4.85229492 0.25634766 C5.73208008 0.30791016 6.61186523 0.35947266 7.51831055 0.41259766 C8.38649414 0.45642578 9.25467773 0.50025391 10.14916992 0.54541016 C13.97045978 0.75656355 17.50571724 1.00807049 21.20581055 2.03759766 C21.20581055 2.69759766 21.20581055 3.35759766 21.20581055 4.03759766 C22.96924805 3.97572266 22.96924805 3.97572266 24.76831055 3.91259766 C28.92990729 3.8977613 32.27068721 4.72588988 36.20581055 6.03759766 C36.20581055 9.33759766 36.20581055 12.63759766 36.20581055 16.03759766 C24.32581055 16.03759766 12.44581055 16.03759766 0.20581055 16.03759766 C0.20581055 15.37759766 0.20581055 14.71759766 0.20581055 14.03759766 C-0.78418945 14.03759766 -1.77418945 14.03759766 -2.79418945 14.03759766 C-2.82104884 11.89183129 -2.84052033 9.7459712 -2.85668945 7.60009766 C-2.86829102 6.40513672 -2.87989258 5.21017578 -2.8918457 3.97900391 C-2.76166202 0.05787127 -2.76166202 0.05787127 0 0 Z " fill="#CC1B24" transform="translate(40.794189453125,45.96240234375)"/>
<path d="M0 0 C0.495 8.415 0.495 8.415 1 17 C-1 16 -1 16 -2 13 C-3.175625 13.103125 -4.35125 13.20625 -5.5625 13.3125 C-6.22378906 13.37050781 -6.88507813 13.42851562 -7.56640625 13.48828125 C-10.21476122 14.04515846 -12.46225889 15.08781418 -14.92358398 16.18676758 C-19.06603683 17.80916739 -23.42250684 18.69415726 -27.75 19.6875 C-28.69488281 19.91244141 -29.63976563 20.13738281 -30.61328125 20.36914062 C-37.58285049 22 -37.58285049 22 -41 22 C-41 27.28 -41 32.56 -41 38 C-43.97 37.67 -46.94 37.34 -50 37 C-50 37.66 -50 38.32 -50 39 C-51.93736701 39.16820551 -53.87489906 39.33451095 -55.8125 39.5 C-56.89144531 39.5928125 -57.97039063 39.685625 -59.08203125 39.78125 C-62 40 -62 40 -65 40 C-60.81413519 36.81076967 -58.29441695 35.49576981 -53 36 C-53 33.36 -53 30.72 -53 28 C-50.36 28 -47.72 28 -45 28 C-45 25.69 -45 23.38 -45 21 C-46.65 21 -48.3 21 -50 21 C-44.32017385 15.81407177 -37.35098086 14.89876548 -29.9375 14.5625 C-21.60676846 14.16700062 -14.00595901 12.23162621 -6 10 C-4.66804812 9.66118871 -3.33549232 9.32457535 -2 9 C-2.25561323 6.6568787 -2.59270772 4.32156597 -3 2 C-5.5439078 0.7280461 -7.05458682 0.99892464 -9.875 1.25 C-10.73867188 1.31703125 -11.60234375 1.3840625 -12.4921875 1.453125 C-15.34972532 2.07626409 -16.72193238 3.22040525 -19 5 C-21.32387947 5.39387788 -23.65793749 5.73486085 -26 6 C-26.33 6.33 -26.66 6.66 -27 7 C-28.85287502 7.07226502 -30.70833878 7.0838122 -32.5625 7.0625 C-33.57441406 7.05347656 -34.58632813 7.04445313 -35.62890625 7.03515625 C-36.80259766 7.01775391 -36.80259766 7.01775391 -38 7 C-38 6.34 -38 5.68 -38 5 C-32.38913443 2.77478172 -26.89188361 1.10449154 -21 -0.1875 C-20.24460938 -0.36474609 -19.48921875 -0.54199219 -18.7109375 -0.72460938 C-12.02581405 -2.21210678 -6.32994429 -3.16497214 0 0 Z " fill="#E6B3B8" transform="translate(73,3)"/>
<path d="M0 0 C15.18 0 30.36 0 46 0 C44.95545051 4.17819796 44.65699677 4.65374433 41.5 7.125 C38.8119616 9.19887681 38.8119616 9.19887681 37 12 C26.6094206 12.12288464 16.36053092 11.83360594 6 11 C5.88785156 10.04609375 5.77570312 9.0921875 5.66015625 8.109375 C5.33008505 4.79287745 5.33008505 4.79287745 2.4375 3.25 C1.633125 2.8375 0.82875 2.425 0 2 C0 1.34 0 0.68 0 0 Z " fill="#CD1620" transform="translate(32,66)"/>
<path d="M0 0 C9.06415586 6.07147732 9.06415586 6.07147732 11 12 C11.3640915 15.51955114 11.48151729 17.94217855 10.0078125 21.1796875 C6.88795183 24.00819931 3.49362245 23.58000579 -0.5 23.5 C-1.27214844 23.51546875 -2.04429688 23.5309375 -2.83984375 23.546875 C-8.49231021 23.50768979 -8.49231021 23.50768979 -11.03125 20.96875 C-11.3509375 20.3190625 -11.670625 19.669375 -12 19 C-11.67 18.34 -11.34 17.68 -11 17 C-10.34 17.33 -9.68 17.66 -9 18 C-9.04640625 17.24074219 -9.0928125 16.48148438 -9.140625 15.69921875 C-9.17671875 14.70535156 -9.2128125 13.71148437 -9.25 12.6875 C-9.29640625 11.70136719 -9.3428125 10.71523437 -9.390625 9.69921875 C-9 7 -9 7 -7.109375 5.14453125 C-5 4 -5 4 -3 4 C-2.67 3.01 -2.34 2.02 -2 1 C-1.34 0.67 -0.68 0.34 0 0 Z " fill="#343436" transform="translate(81,71)"/>
<path d="M0 0 C-1.1875 1.5 -1.1875 1.5 -3 3 C-5.6875 3.1875 -5.6875 3.1875 -8 3 C-8 3.99 -8 4.98 -8 6 C-7.05125 6.45375 -6.1025 6.9075 -5.125 7.375 C-2 9 -2 9 0 11 C0.23046875 13.53125 0.23046875 13.53125 0.1875 16.5 C0.18105469 17.4796875 0.17460938 18.459375 0.16796875 19.46875 C0 22 0 22 -1 24 C-16.36798951 24.10674496 -31.66755906 24.13573637 -47 23 C-47.20787761 16.61353776 -47.23003917 11.03422365 -45 5 C-44 4 -44 4 -41.71484375 3.90234375 C-40.34005859 3.91974609 -40.34005859 3.91974609 -38.9375 3.9375 C-38.01839844 3.94652344 -37.09929688 3.95554688 -36.15234375 3.96484375 C-35.44207031 3.97644531 -34.73179688 3.98804688 -34 4 C-34 4.66 -34 5.32 -34 6 C-26.6255866 5.83135437 -20.26424449 4.22102539 -13.37255859 1.73876953 C-8.64781092 0.08565766 -4.95306362 -0.50541466 0 0 Z M-42 7 C-42.07258946 9.18639453 -42.08373783 11.37500389 -42.0625 13.5625 C-42.05347656 14.76003906 -42.04445313 15.95757812 -42.03515625 17.19140625 C-42.02355469 18.11824219 -42.01195312 19.04507813 -42 20 C-41.01 20 -40.02 20 -39 20 C-39 20.66 -39 21.32 -39 22 C-27.12 22 -15.24 22 -3 22 C-3 18.7 -3 15.4 -3 12 C-8.24385089 10.2520497 -12.47322267 9.80607799 -18 10 C-18 9.34 -18 8.68 -18 8 C-22.52946246 6.7397062 -27.01227828 6.61101713 -31.6875 6.375 C-32.56728516 6.3234375 -33.44707031 6.271875 -34.35351562 6.21875 C-35.18947266 6.17492188 -36.02542969 6.13109375 -36.88671875 6.0859375 C-37.65201904 6.0451709 -38.41731934 6.0044043 -39.20581055 5.96240234 C-41.02415685 5.79344444 -41.02415685 5.79344444 -42 7 Z " fill="#BF959A" transform="translate(80,40)"/>
<path d="M0 0 C1.47968324 0.14049518 2.95874516 0.28754826 4.4375 0.4375 C5.67306641 0.55931641 5.67306641 0.55931641 6.93359375 0.68359375 C9 1 9 1 10 2 C13.09296835 2.2376305 16.17815582 2.39516319 19.27734375 2.51757812 C24.40046293 2.7843024 28.3003585 3.3003585 32 7 C32.1875 9.5625 32.1875 9.5625 32 12 C31 13 31 13 27.375 13.25 C22.85584252 13.67457053 18.86185864 15.01866422 14.625 16.5625 C8.29643596 18.84243945 2.70904142 19.627665 -4 19 C-4 18.34 -4 17.68 -4 17 C-5.32 17 -6.64 17 -8 17 C-8 16.34 -8 15.68 -8 15 C-6.49759766 14.81824219 -6.49759766 14.81824219 -4.96484375 14.6328125 C-3.6223597 14.46382849 -2.27991377 14.29454142 -0.9375 14.125 C0.04766602 14.00705078 0.04766602 14.00705078 1.05273438 13.88671875 C4.37541357 13.46115393 7.36329255 12.89259177 10.59375 11.9375 C14.05407151 10.98511793 16.8635695 10.79468695 20.4375 10.875 C21.48808594 10.89304687 22.53867188 10.91109375 23.62109375 10.9296875 C24.40613281 10.95289063 25.19117188 10.97609375 26 11 C26 10.01 26 9.02 26 8 C20.39 7.34 14.78 6.68 9 6 C9 5.34 9 4.68 9 4 C6.69 4 4.38 4 2 4 C1.34 2.68 0.68 1.36 0 0 Z " fill="#C14750" transform="translate(50,27)"/>
<path d="M0 0 C0.33 0 0.66 0 1 0 C1.33 8.58 1.66 17.16 2 26 C4.31 26.33 6.62 26.66 9 27 C9 26.01 9 25.02 9 24 C7.02 24 5.04 24 3 24 C3 22.68 3 21.36 3 20 C3.66 20 4.32 20 5 20 C5 19.34 5 18.68 5 18 C4.34 18 3.68 18 3 18 C3.33 17.01 3.66 16.02 4 15 C5.58306647 14.83081732 7.16646719 14.66476064 8.75 14.5 C9.63171875 14.4071875 10.5134375 14.314375 11.421875 14.21875 C16.25498482 13.80866796 21.14955303 14 26 14 C26.33 14.66 26.66 15.32 27 16 C27.99 16.33 28.98 16.66 30 17 C31.38576923 18.62332967 32.72641268 20.28724465 34 22 C32.68 22.33 31.36 22.66 30 23 C29.34 21.35 28.68 19.7 28 18 C23.71 18.66 19.42 19.32 15 20 C13.68 24.62 12.36 29.24 11 34 C10.67 32.68 10.34 31.36 10 30 C8.9275 30.04125 7.855 30.0825 6.75 30.125 C3 30 3 30 -1 28 C-0.67 18.76 -0.34 9.52 0 0 Z " fill="#676567" transform="translate(4,55)"/>
<path d="M0 0 C3.63 0 7.26 0 11 0 C10.67 4.29 10.34 8.58 10 13 C11.32 13 12.64 13 14 13 C14 15.64 14 18.28 14 21 C15.32 21.33 16.64 21.66 18 22 C18.33 23.32 18.66 24.64 19 26 C16.49860398 27.25069801 14.72607309 27.13302467 11.9375 27.125 C11.03902344 27.12757812 10.14054687 27.13015625 9.21484375 27.1328125 C7 27 7 27 6 26 C5.95919217 24.00041636 5.95745644 21.99954746 6 20 C7.32 20 8.64 20 10 20 C10 19.01 10 18.02 10 17 C8.68 17 7.36 17 6 17 C5.49242138 15.58603098 4.99425075 14.16868271 4.5 12.75 C4.2215625 11.96109375 3.943125 11.1721875 3.65625 10.359375 C3 8 3 8 3 4 C1.68 3.34 0.36 2.68 -1 2 C-0.67 1.34 -0.34 0.68 0 0 Z " fill="#432B2D" transform="translate(88,66)"/>
<path d="M0 0 C0.928125 0.20625 1.85625 0.4125 2.8125 0.625 C2.8125 2.275 2.8125 3.925 2.8125 5.625 C3.4725 5.625 4.1325 5.625 4.8125 5.625 C4.8125 6.945 4.8125 8.265 4.8125 9.625 C5.4725 9.625 6.1325 9.625 6.8125 9.625 C6.791875 8.655625 6.77125 7.68625 6.75 6.6875 C6.8125 3.625 6.8125 3.625 7.8125 2.625 C9.81208364 2.58419217 11.81295254 2.58245644 13.8125 2.625 C13.4825 3.945 13.1525 5.265 12.8125 6.625 C12.1525 6.625 11.4925 6.625 10.8125 6.625 C11.1425 7.615 11.4725 8.605 11.8125 9.625 C12.8025 9.955 13.7925 10.285 14.8125 10.625 C14.8125 11.615 14.8125 12.605 14.8125 13.625 C-0.61607143 15.91071429 -0.61607143 15.91071429 -5.1875 13.625 C-6.11306607 10.84830178 -6.38045491 8.94803105 -6.4375 6.0625 C-6.46328125 5.27746094 -6.4890625 4.49242187 -6.515625 3.68359375 C-6.40734375 3.00425781 -6.2990625 2.32492188 -6.1875 1.625 C-3.1875 -0.375 -3.1875 -0.375 0 0 Z " fill="#CF545B" transform="translate(13.1875,13.375)"/>
<path d="M0 0 C0.70382813 0.00193359 1.40765625 0.00386719 2.1328125 0.00585938 C9.38317421 0.06401736 16.58681557 0.54362309 23.8125 1.125 C23.8125 2.445 23.8125 3.765 23.8125 5.125 C23.1525 5.125 22.4925 5.125 21.8125 5.125 C21.8125 5.785 21.8125 6.445 21.8125 7.125 C12.2425 7.125 2.6725 7.125 -7.1875 7.125 C-7.8475 5.145 -8.5075 3.165 -9.1875 1.125 C-6.23083337 -0.35333331 -3.23911647 -0.02127 0 0 Z " fill="#7A373B" transform="translate(44.1875,76.875)"/>
<path d="M0 0 C2.12563103 0.11376617 4.2505261 0.24135631 6.375 0.375 C8.15003906 0.47941406 8.15003906 0.47941406 9.9609375 0.5859375 C13 1 13 1 15 3 C15.22705078 5.61376953 15.22705078 5.61376953 15.1953125 8.8828125 C15.18564453 10.63271484 15.18564453 10.63271484 15.17578125 12.41796875 C15.15902344 13.64128906 15.14226562 14.86460938 15.125 16.125 C15.11597656 17.35605469 15.10695313 18.58710938 15.09765625 19.85546875 C15.07402548 22.90383815 15.04108054 25.95182382 15 29 C14.34 29 13.68 29 13 29 C13 26.03 13 23.06 13 20 C11.35 19.67 9.7 19.34 8 19 C8 16.69 8 14.38 8 12 C6.68 11.67 5.36 11.34 4 11 C4 8.03 4 5.06 4 2 C2.68 1.34 1.36 0.68 0 0 Z " fill="#BF8A8E" transform="translate(69,1)"/>
<path d="M0 0 C2.375 1.6875 2.375 1.6875 4 4 C4.25 6.75 4.25 6.75 4 9 C2.58398286 9.48108275 1.16715563 9.95978141 -0.25 10.4375 C-1.03890625 10.70433594 -1.8278125 10.97117187 -2.640625 11.24609375 C-7.27097277 12.72565852 -11.09620533 13.09430374 -16 13 C-16 11.68 -16 10.36 -16 9 C-14.35 8.67 -12.7 8.34 -11 8 C-12.32 7.67 -13.64 7.34 -15 7 C-13.9497036 3.61571159 -12.94675369 2.97132891 -9.75 1.25 C-6.09909484 0.03303161 -3.78753699 -0.58917242 0 0 Z " fill="#C7202A" transform="translate(68,3)"/>
<path d="M0 0 C1.99954746 -0.04254356 4.00041636 -0.04080783 6 0 C7 1 7 1 7.11352539 2.76586914 C7.10828857 3.51473389 7.10305176 4.26359863 7.09765625 5.03515625 C7.09443359 5.84404297 7.09121094 6.65292969 7.08789062 7.48632812 C7.07951172 8.33646484 7.07113281 9.18660156 7.0625 10.0625 C7.05798828 10.91650391 7.05347656 11.77050781 7.04882812 12.65039062 C7.03700373 14.76695663 7.01906769 16.88348685 7 19 C6.01 19 5.02 19 4 19 C4 17.35 4 15.7 4 14 C1.36 14 -1.28 14 -4 14 C-4 15.65 -4 17.3 -4 19 C-5.32 19 -6.64 19 -8 19 C-8 17.35 -8 15.7 -8 14 C-10.97 14 -13.94 14 -17 14 C-17 15.65 -17 17.3 -17 19 C-17.99 19 -18.98 19 -20 19 C-20 13.39 -20 7.78 -20 2 C-19.01 2.495 -19.01 2.495 -18 3 C-18 5.64 -18 8.28 -18 11 C-14.37 11 -10.74 11 -7 11 C-7 10.01 -7 9.02 -7 8 C-6.34 8 -5.68 8 -5 8 C-5 8.99 -5 9.98 -5 11 C-1.7 11 1.6 11 5 11 C5 7.7 5 4.4 5 1 C3.35 1 1.7 1 0 1 C0 0.67 0 0.34 0 0 Z " fill="#C30913" transform="translate(105,3)"/>
<path d="M0 0 C1.8125 0.5 1.8125 0.5 4 2 C6.22686726 6.14625912 7.44351374 10.26918678 7 15 C5.1875 14.875 5.1875 14.875 3 14 C2.319375 12.6078125 2.319375 12.6078125 1.625 11.1875 C-0.30755859 7.396712 -2.3662755 6.09948527 -6 4 C-9.08238304 5.66406556 -11.65609138 7.37858846 -14 10 C-14.97734556 13.69163168 -15.10834755 17.19429218 -15 21 C-15.99 20.67 -16.98 20.34 -18 20 C-18 18.68 -18 17.36 -18 16 C-18.99 16 -19.98 16 -21 16 C-21 15.34 -21 14.68 -21 14 C-20.34 14 -19.68 14 -19 14 C-19 13.154375 -19 12.30875 -19 11.4375 C-17.52874722 6.38006858 -14.48156202 3.66888203 -10 1 C-6.45098359 0.244363 -3.31011828 0.34494086 0 2 C0 1.34 0 0.68 0 0 Z " fill="#8A7C7E" transform="translate(87,68)"/>
<path d="M0 0 C0.495 8.415 0.495 8.415 1 17 C-1 16 -1 16 -2 13 C-2.92232422 13.14308594 -2.92232422 13.14308594 -3.86328125 13.2890625 C-4.67152344 13.39992188 -5.47976562 13.51078125 -6.3125 13.625 C-7.11300781 13.74101562 -7.91351563 13.85703125 -8.73828125 13.9765625 C-11 14 -11 14 -14 12 C-10.04 11.01 -6.08 10.02 -2 9 C-2.25561323 6.6568787 -2.59270772 4.32156597 -3 2 C-5.5439078 0.7280461 -7.05458682 0.99892464 -9.875 1.25 C-10.73867188 1.31703125 -11.60234375 1.3840625 -12.4921875 1.453125 C-15.34972532 2.07626409 -16.72193238 3.22040525 -19 5 C-21.32387947 5.39387788 -23.65793749 5.73486085 -26 6 C-26.33 6.33 -26.66 6.66 -27 7 C-28.85287502 7.07226502 -30.70833878 7.0838122 -32.5625 7.0625 C-33.57441406 7.05347656 -34.58632813 7.04445313 -35.62890625 7.03515625 C-36.41136719 7.02355469 -37.19382813 7.01195312 -38 7 C-38 6.34 -38 5.68 -38 5 C-32.38913443 2.77478172 -26.89188361 1.10449154 -21 -0.1875 C-20.24460937 -0.36474609 -19.48921875 -0.54199219 -18.7109375 -0.72460938 C-12.02581405 -2.21210678 -6.32994429 -3.16497214 0 0 Z " fill="#E6B1B6" transform="translate(73,3)"/>
<path d="M0 0 C1.65 0 3.3 0 5 0 C5.18451025 15.74487472 5.18451025 15.74487472 4 23 C4.66 23 5.32 23 6 23 C6 24.98 6 26.96 6 29 C4 28 4 28 3 25 C2.01 24.67 1.02 24.34 0 24 C0 21.36 0 18.72 0 16 C-1.32 16 -2.64 16 -4 16 C-4 12.04 -4 8.08 -4 4 C-2.35 3.34 -0.7 2.68 1 2 C0.67 1.34 0.34 0.68 0 0 Z " fill="#655C5E" transform="translate(102,63)"/>
<path d="M0 0 C3.95139122 0.26106999 7.90236228 0.52771693 11.85302734 0.79956055 C13.19732428 0.8912688 14.54172653 0.98144665 15.88623047 1.07006836 C17.81765242 1.19764199 19.74867894 1.33115854 21.6796875 1.46484375 C22.84226074 1.543396 24.00483398 1.62194824 25.20263672 1.70288086 C28 2 28 2 30 3 C30 3.99 30 4.98 30 6 C29.26136719 6.03738281 28.52273437 6.07476562 27.76171875 6.11328125 C21.3643011 6.52785342 15.59037678 7.45039405 9.47265625 9.37890625 C6.88762207 10.02822763 4.6540961 10.10920252 2 10 C2.33 9.01 2.66 8.02 3 7 C1.824375 6.87625 0.64875 6.7525 -0.5625 6.625 C-4.54120426 6.13564065 -8.17766559 5.1944795 -12 4 C-12 3.67 -12 3.34 -12 3 C-10.0412957 3.14076315 -8.08303907 3.2877676 -6.125 3.4375 C-4.48917969 3.55931641 -4.48917969 3.55931641 -2.8203125 3.68359375 C0 4 0 4 2 5 C3.53668865 5.22467831 5.07968054 5.40796805 6.625 5.5625 C7.44226563 5.64628906 8.25953125 5.73007812 9.1015625 5.81640625 C9.72804688 5.87699219 10.35453125 5.93757813 11 6 C10.16745087 3.76660104 10.16745087 3.76660104 7.71484375 3.1484375 C6.79832031 2.89320312 5.88179687 2.63796875 4.9375 2.375 C4.01839844 2.11460938 3.09929688 1.85421875 2.15234375 1.5859375 C1.44207031 1.39257812 0.73179688 1.19921875 0 1 C0 0.67 0 0.34 0 0 Z " fill="#E28085" transform="translate(46,32)"/>
<path d="M0 0 C2.64 0 5.28 0 8 0 C8 1.65 8 3.3 8 5 C8.99 5 9.98 5 11 5 C11.33 4.01 11.66 3.02 12 2 C12.66 2.33 13.32 2.66 14 3 C14.10867302 4.58179615 14.18589827 6.16577153 14.25 7.75 C14.29640625 8.63171875 14.3428125 9.5134375 14.390625 10.421875 C13.86858548 13.86733583 12.69529554 14.84285911 10 17 C7.34277344 17.45410156 7.34277344 17.45410156 4.359375 17.390625 C3.28945312 17.37773438 2.21953125 17.36484375 1.1171875 17.3515625 C0.00601563 17.31804688 -1.10515625 17.28453125 -2.25 17.25 C-3.37664062 17.23195313 -4.50328125 17.21390625 -5.6640625 17.1953125 C-8.44356896 17.14820222 -11.2213534 17.08243361 -14 17 C-14.66 15.68 -15.32 14.36 -16 13 C-7.09 13 1.82 13 11 13 C11 11.02 11 9.04 11 7 C9.35 7 7.7 7 6 7 C6 5.02 6 3.04 6 1 C4.02 1 2.04 1 0 1 C0 0.67 0 0.34 0 0 Z " fill="#D08B90" transform="translate(101,17)"/>
<path d="M0 0 C8.91 0 17.82 0 27 0 C27 1.98 27 3.96 27 6 C18.09 6 9.18 6 0 6 C0 4.02 0 2.04 0 0 Z " fill="#C82F38" transform="translate(85,24)"/>
<path d="M0 0 C12.87 0 25.74 0 39 0 C39 1.32 39 2.64 39 4 C27.12 4 15.24 4 3 4 C3 3.34 3 2.68 3 2 C2.01 2 1.02 2 0 2 C0 1.34 0 0.68 0 0 Z " fill="#2C2828" transform="translate(38,58)"/>
<path d="M0 0 C1.98 0.495 1.98 0.495 4 1 C4 1.66 4 2.32 4 3 C8.82924993 5.03090549 13.80927941 6.55971429 18.82421875 8.05664062 C20.58051477 8.61482975 22.29547009 9.29947978 24 10 C24.33 10.99 24.66 11.98 25 13 C19.39926526 13.1778011 14.58012739 12.86097033 9.1484375 11.5078125 C7.09783331 11.02312424 5.08903564 10.70182696 3 10.4375 C0 10 0 10 -1 9 C-0.91062197 7.47480724 -0.75462854 5.95318071 -0.5625 4.4375 C-0.46066406 3.61121094 -0.35882812 2.78492188 -0.25390625 1.93359375 C-0.17011719 1.29550781 -0.08632813 0.65742188 0 0 Z " fill="#D95D62" transform="translate(32,25)"/>
<path d="M0 0 C15.18 0 30.36 0 46 0 C44.96298769 4.14804926 44.67762362 4.65103488 41.5625 7.125 C39.60435026 8.70296618 37.78150132 10.21849868 36 12 C35.875 5.25 35.875 5.25 37 3 C27.17680301 1.39621274 12.17181585 -0.58590793 3 4 C2.01 3.34 1.02 2.68 0 2 C0 1.34 0 0.68 0 0 Z " fill="#BA1F27" transform="translate(32,66)"/>
<path d="M0 0 C1.15822266 0.02707031 1.15822266 0.02707031 2.33984375 0.0546875 C3.19255859 0.08949219 3.19255859 0.08949219 4.0625 0.125 C3.7325 1.115 3.4025 2.105 3.0625 3.125 C0.74900598 4.19718065 -1.39961556 5.03790343 -3.8125 5.8125 C-4.48418213 6.03381592 -5.15586426 6.25513184 -5.84790039 6.4831543 C-11.59358528 8.2563621 -16.93432826 8.68662729 -22.9375 8.125 C-22.9375 7.465 -22.9375 6.805 -22.9375 6.125 C-24.2575 6.125 -25.5775 6.125 -26.9375 6.125 C-26.9375 5.465 -26.9375 4.805 -26.9375 4.125 C-25.43509766 3.94324219 -25.43509766 3.94324219 -23.90234375 3.7578125 C-22.5598597 3.58882849 -21.21741377 3.41954142 -19.875 3.25 C-18.88983398 3.13205078 -18.88983398 3.13205078 -17.88476562 3.01171875 C-14.53759174 2.58301668 -11.51049922 2.00196588 -8.25 1.0625 C-5.28036436 0.22203708 -3.05340197 -0.09395083 0 0 Z " fill="#CC3138" transform="translate(68.9375,37.875)"/>
<path d="M0 0 C3.0625 0.25 3.0625 0.25 6.0625 2.25 C6.42578125 4.125 6.42578125 4.125 6.375 6.25 C6.37113281 6.95125 6.36726563 7.6525 6.36328125 8.375 C6.0625 10.25 6.0625 10.25 4.0625 12.25 C0.5625 12.5625 0.5625 12.5625 -2.9375 12.25 C-5.38647847 8.57653229 -5.25287716 6.58643601 -4.9375 2.25 C-2.9375 0.25 -2.9375 0.25 0 0 Z " fill="#C6CACD" transform="translate(79.9375,76.75)"/>
<path d="M0 0 C3.46679688 0.04882812 3.46679688 0.04882812 6.93359375 0.09765625 C6.93359375 3.39765625 6.93359375 6.69765625 6.93359375 10.09765625 C2.31359375 10.09765625 -2.30640625 10.09765625 -7.06640625 10.09765625 C-2.71356262 0.1282402 -2.71356262 0.1282402 0 0 Z " fill="#1D1F1F" transform="translate(19.06640625,46.90234375)"/>
<path d="M0 0 C0.845625 -0.01417969 1.69125 -0.02835938 2.5625 -0.04296875 C5.15408616 0.20206904 6.77024992 0.88165099 9 2.1875 C9 2.8475 9 3.5075 9 4.1875 C8.34 4.1875 7.68 4.1875 7 4.1875 C7 5.1775 7 6.1675 7 7.1875 C8.32 7.1875 9.64 7.1875 11 7.1875 C11 7.8475 11 8.5075 11 9.1875 C8.03 9.8475 5.06 10.5075 2 11.1875 C2 10.5275 2 9.8675 2 9.1875 C2.66 9.1875 3.32 9.1875 4 9.1875 C4.33 7.8675 4.66 6.5475 5 5.1875 C3.02 5.5175 1.04 5.8475 -1 6.1875 C-1.33 8.1675 -1.66 10.1475 -2 12.1875 C-2.66 12.1875 -3.32 12.1875 -4 12.1875 C-4 10.8675 -4 9.5475 -4 8.1875 C-4.66 8.1875 -5.32 8.1875 -6 8.1875 C-6 6.5375 -6 4.8875 -6 3.1875 C-6.99 3.1875 -7.98 3.1875 -9 3.1875 C-9 2.5275 -9 1.8675 -9 1.1875 C-5.9473937 0.30422271 -3.17494823 0.0241993 0 0 Z " fill="#CA232A" transform="translate(22,10.8125)"/>
<path d="M0 0 C6.625 -0.25 6.625 -0.25 10 2 C10.39507893 6.34586828 10.45331002 8.32003497 8 12 C4.5 12.375 4.5 12.375 1 12 C-1.44576827 8.33134759 -1.23607254 6.32799657 -1 2 C-0.67 1.34 -0.34 0.68 0 0 Z " fill="#C1C4C6" transform="translate(22,77)"/>
<path d="M0 0 C0.33 1.65 0.66 3.3 1 5 C-4.24955168 7.15758273 -8.80810284 7.24042211 -14.375 7.125 C-15.20644531 7.11597656 -16.03789063 7.10695313 -16.89453125 7.09765625 C-18.92981337 7.0742622 -20.96494564 7.03839725 -23 7 C-22.67 6.01 -22.34 5.02 -22 4 C-19.0625 3 -19.0625 3 -17.16796875 2.54296875 C-13.86312402 1.7152689 -10.65711365 0.57611978 -7.4296875 -0.51171875 C-4.64763613 -1.07081267 -2.72171427 -0.72159329 0 0 Z " fill="#CF4D54" transform="translate(72,16)"/>
<path d="M0 0 C2.16789459 3.61315766 2.19258541 6.85941364 2 11 C1.01 11 0.02 11 -1 11 C-1.33 10.34 -1.66 9.68 -2 9 C-4.76276177 9.52268466 -7.3260876 10.10869587 -10 11 C-10.28782447 7.94906061 -10.43064949 5.04146202 -10 2 C-6.81383058 -1.09513601 -4.11542831 -1.77964468 0 0 Z " fill="#B88187" transform="translate(104,49)"/>
<path d="M0 0 C2.50674198 0.11268332 5.0126063 0.2319621 7.51831055 0.3659668 C8.38649414 0.40141602 9.25467773 0.43686523 10.14916992 0.47338867 C10.98899414 0.51657227 11.82881836 0.55975586 12.6940918 0.60424805 C13.84711792 0.66092651 13.84711792 0.66092651 15.0234375 0.71875 C17.4127983 1.0852131 19.11228691 1.86911017 21.20581055 3.0534668 C20.11913086 3.1443457 20.11913086 3.1443457 19.01049805 3.23706055 C14.03464522 3.66830113 9.11900664 4.12394321 4.20581055 5.0534668 C4.53581055 6.7034668 4.86581055 8.3534668 5.20581055 10.0534668 C2.56581055 10.3834668 -0.07418945 10.7134668 -2.79418945 11.0534668 C-2.82107096 9.40772114 -2.84053069 7.76185266 -2.85668945 6.1159668 C-2.86829102 5.19944336 -2.87989258 4.28291992 -2.8918457 3.33862305 C-2.75267504 0.08202964 -2.75267504 0.08202964 0 0 Z " fill="#D7434A" transform="translate(40.794189453125,45.946533203125)"/>
<path d="M0 0 C2.64 0 5.28 0 8 0 C8 2.97 8 5.94 8 9 C6.35 9 4.7 9 3 9 C3 9.66 3 10.32 3 11 C1.06263299 11.16820551 -0.87489906 11.33451095 -2.8125 11.5 C-3.89144531 11.5928125 -4.97039063 11.685625 -6.08203125 11.78125 C-9 12 -9 12 -12 12 C-7.81413519 8.81076967 -5.29441695 7.49576981 0 8 C0 5.36 0 2.72 0 0 Z " fill="#BD8288" transform="translate(20,31)"/>
<path d="M0 0 C-0.99 0.33 -1.98 0.66 -3 1 C-3 1.66 -3 2.32 -3 3 C-0.03 3.66 2.94 4.32 6 5 C6 5.66 6 6.32 6 7 C-5.35353535 7.36363636 -5.35353535 7.36363636 -11 5 C-12.11375 4.62875 -13.2275 4.2575 -14.375 3.875 C-15.24125 3.58625 -16.1075 3.2975 -17 3 C-16.67 2.01 -16.34 1.02 -16 0 C-10.49983036 -1.30267176 -5.52967941 -0.71033431 0 0 Z " fill="#DEA5AB" transform="translate(65,23)"/>
<path d="M0 0 C-1.1875 1.5 -1.1875 1.5 -3 3 C-5.6875 3.1875 -5.6875 3.1875 -8 3 C-8 3.99 -8 4.98 -8 6 C-12.08443115 7.53166168 -15.79455657 6.63081652 -20 6 C-20 6.66 -20 7.32 -20 8 C-22.8966148 7.88569952 -25.79178316 7.7589576 -28.6875 7.625 C-29.50412109 7.5940625 -30.32074219 7.563125 -31.16210938 7.53125 C-35.50126633 7.32044076 -39.04283457 6.98261241 -43 5 C-43 4.67 -43 4.34 -43 4 C-40.03 4 -37.06 4 -34 4 C-34 4.66 -34 5.32 -34 6 C-26.6255866 5.83135437 -20.26424449 4.22102539 -13.37255859 1.73876953 C-8.64781092 0.08565766 -4.95306362 -0.50541466 0 0 Z " fill="#B88C91" transform="translate(80,40)"/>
<path d="M0 0 C1.67542976 0.28604898 3.34385343 0.61781233 5 1 C4.34 1.66 3.68 2.32 3 3 C2.53513282 6.12196336 2.53513282 6.12196336 2.375 9.625 C2.30023438 10.81351563 2.22546875 12.00203125 2.1484375 13.2265625 C2.09945312 14.14179687 2.05046875 15.05703125 2 16 C2.99 16 3.98 16 5 16 C5 16.99 5 17.98 5 19 C2.36 19 -0.28 19 -3 19 C-3.20787761 12.61353776 -3.23003917 7.03422365 -1 1 C-0.67 0.67 -0.34 0.34 0 0 Z " fill="#E3B3B6" transform="translate(36,44)"/>
<path d="M0 0 C0.99 0.33 1.98 0.66 3 1 C3.02691685 3.45840605 3.04679802 5.91651882 3.0625 8.375 C3.07087891 9.07367188 3.07925781 9.77234375 3.08789062 10.4921875 C3.11328125 15.7734375 3.11328125 15.7734375 2 18 C2.66 18 3.32 18 4 18 C4 18.66 4 19.32 4 20 C3.34 20 2.68 20 2 20 C2 21.32 2 22.64 2 24 C3.98 24 5.96 24 8 24 C8 24.99 8 25.98 8 27 C5.66705225 27.04241723 3.33297433 27.04092937 1 27 C0 26 0 26 -0.11352539 23.49975586 C-0.10828857 22.41573486 -0.10305176 21.33171387 -0.09765625 20.21484375 C-0.09443359 19.04501953 -0.09121094 17.87519531 -0.08789062 16.66992188 C-0.07951172 15.43822266 -0.07113281 14.20652344 -0.0625 12.9375 C-0.05798828 11.70193359 -0.05347656 10.46636719 -0.04882812 9.19335938 C-0.03699608 6.12885883 -0.02051173 3.06445279 0 0 Z " fill="#1C1E20" transform="translate(5,55)"/>
<path d="M0 0 C9.57 0 19.14 0 29 0 C29 0.66 29 1.32 29 2 C26.23382437 3.38308781 23.98982 3.11210196 20.8984375 3.09765625 C19.68671875 3.09443359 18.475 3.09121094 17.2265625 3.08789062 C15.95554687 3.07951172 14.68453125 3.07113281 13.375 3.0625 C12.09625 3.05798828 10.8175 3.05347656 9.5 3.04882812 C6.33328708 3.03701203 3.16666644 3.02053815 0 3 C0 2.01 0 1.02 0 0 Z " fill="#222122" transform="translate(39,80)"/>
<path d="M0 0 C1.75570313 0.04060547 1.75570313 0.04060547 3.546875 0.08203125 C4.43890625 0.11683594 5.3309375 0.15164063 6.25 0.1875 C-0.40581052 6.95973869 -0.40581052 6.95973869 -5.36328125 7.44140625 C-7.83788281 7.43790611 -10.28202744 7.36308698 -12.75 7.1875 C-10.11301923 0.81479647 -6.65986232 -0.19979587 0 0 Z " fill="#CD1721" transform="translate(1159.75,-0.1875)"/>
<path d="M0 0 C1.8125 0.5 1.8125 0.5 4 2 C6.22686726 6.14625912 7.44351374 10.26918678 7 15 C5.1875 14.875 5.1875 14.875 3 14 C2 12 1 10 0 8 C-1.64605826 6.96642853 -3.30963442 5.95939668 -5 5 C-5 4.01 -5 3.02 -5 2 C-3.35 2 -1.7 2 0 2 C0 1.34 0 0.68 0 0 Z " fill="#9B9193" transform="translate(87,68)"/>
<path d="M0 0 C0.33 0.99 0.66 1.98 1 3 C0.67 3.66 0.34 4.32 0 5 C-0.15411106 7.0307477 -0.24982453 9.06606421 -0.31640625 11.1015625 C-0.35830078 12.31328125 -0.40019531 13.525 -0.44335938 14.7734375 C-0.48267578 16.04445313 -0.52199219 17.31546875 -0.5625 18.625 C-0.60568359 19.90375 -0.64886719 21.1825 -0.69335938 22.5 C-0.79969886 25.66655348 -0.90172833 28.83318753 -1 32 C-1.66 32 -2.32 32 -3 32 C-5.3348745 10.81935271 -5.3348745 10.81935271 -2 1 C-1.34 0.67 -0.68 0.34 0 0 Z " fill="#4A3639" transform="translate(5,50)"/>
<path d="M0 0 C3.63 0 7.26 0 11 0 C10.67 3.96 10.34 7.92 10 12 C9.34 12 8.68 12 8 12 C8 11.01 8 10.02 8 9 C5.525 8.01 5.525 8.01 3 7 C3 6.01 3 5.02 3 4 C1.68 3.34 0.36 2.68 -1 2 C-0.67 1.34 -0.34 0.68 0 0 Z " fill="#B3232A" transform="translate(88,66)"/>
<path d="M0 0 C0.68578125 -0.01224609 1.3715625 -0.02449219 2.078125 -0.03710938 C5.81796797 -0.04802331 7.4349737 0.0608158 10.625 2.1875 C10.625 3.1775 10.625 4.1675 10.625 5.1875 C8.315 5.1875 6.005 5.1875 3.625 5.1875 C3.625 4.5275 3.625 3.8675 3.625 3.1875 C1.315 2.8575 -0.995 2.5275 -3.375 2.1875 C-3.375 3.1775 -3.375 4.1675 -3.375 5.1875 C-5.355 5.1875 -7.335 5.1875 -9.375 5.1875 C-8.02614452 -0.78600282 -5.6683233 0.00526796 0 0 Z " fill="#D6242D" transform="translate(53.375,66.8125)"/>
<path d="M0 0 C0.99 0.495 0.99 0.495 2 1 C2 3.64 2 6.28 2 9 C2.71027344 8.98839844 3.42054687 8.97679687 4.15234375 8.96484375 C5.07144531 8.95582031 5.99054688 8.94679688 6.9375 8.9375 C7.85402344 8.92589844 8.77054688 8.91429687 9.71484375 8.90234375 C12 9 12 9 13 10 C13.04092937 12.33297433 13.04241723 14.66705225 13 17 C12.67 17 12.34 17 12 17 C12 15.35 12 13.7 12 12 C9.03 12 6.06 12 3 12 C3 13.65 3 15.3 3 17 C2.01 17 1.02 17 0 17 C0 11.39 0 5.78 0 0 Z " fill="#BD2D34" transform="translate(85,5)"/>
<path d="M0 0 C1.47968324 0.14049518 2.95874516 0.28754826 4.4375 0.4375 C5.67306641 0.55931641 5.67306641 0.55931641 6.93359375 0.68359375 C9 1 9 1 10 2 C11.84891946 2.23363881 13.70488031 2.41303635 15.5625 2.5625 C16.57441406 2.64628906 17.58632812 2.73007812 18.62890625 2.81640625 C19.80259766 2.90728516 19.80259766 2.90728516 21 3 C21 4.32 21 5.64 21 7 C16.83861737 7.08159574 13.0527516 6.98248524 9 6 C9 5.34 9 4.68 9 4 C6.69 4 4.38 4 2 4 C1.34 2.68 0.68 1.36 0 0 Z " fill="#CD4D56" transform="translate(50,27)"/>
<path d="M0 0 C5.75 0.75 5.75 0.75 8 3 C6.906875 3.185625 5.81375 3.37125 4.6875 3.5625 C1.0509502 4.57516528 1.0509502 4.57516528 -0.1328125 6.69140625 C-1.05926212 8.83650143 -1.05926212 8.83650143 -2 12 C1.96 12.33 5.92 12.66 10 13 C10 13.33 10 13.66 10 14 C4.39 14 -1.22 14 -7 14 C-5.58843021 10.47107553 -4.22615467 7.45137797 -2.375 4.1875 C-1.92898437 3.39730469 -1.48296875 2.60710938 -1.0234375 1.79296875 C-0.68570312 1.20128906 -0.34796875 0.60960937 0 0 Z " fill="#B3B5B9" transform="translate(15,44)"/>
<path d="M0 0 C0.33 0.66 0.66 1.32 1 2 C1.99 2.33 2.98 2.66 4 3 C5.38576923 4.62332967 6.72641268 6.28724465 8 8 C6.68 8.33 5.36 8.66 4 9 C3.34 7.35 2.68 5.7 2 4 C1.319375 4.165 0.63875 4.33 -0.0625 4.5 C-3.4164822 5.07089059 -6.60389805 5.06659023 -10 5 C-10 3.68 -10 2.36 -10 1 C-6.78548731 -0.60725635 -3.56387464 -0.05748185 0 0 Z " fill="#979293" transform="translate(30,69)"/>
<path d="M0 0 C3.3 0 6.6 0 10 0 C10 4.62 10 9.24 10 14 C9.34 14 8.68 14 8 14 C7.67 11.36 7.34 8.72 7 6 C7.66 6 8.32 6 9 6 C9 5.34 9 4.68 9 4 C8.34 4 7.68 4 7 4 C6.67 3.67 6.34 3.34 6 3 C6 3.99 6 4.98 6 6 C4.35 5.67 2.7 5.34 1 5 C0.67 3.35 0.34 1.7 0 0 Z " fill="#721319" transform="translate(73,5)"/>
<path d="M0 0 C0.33 2.31 0.66 4.62 1 7 C0.17242187 6.75443359 0.17242187 6.75443359 -0.671875 6.50390625 C-3.26614007 5.94239586 -5.59835411 5.90260992 -8.25 5.9375 C-9.58804688 5.95103516 -9.58804688 5.95103516 -10.953125 5.96484375 C-11.62859375 5.97644531 -12.3040625 5.98804688 -13 6 C-13 5.34 -13 4.68 -13 4 C-13.99 3.67 -14.98 3.34 -16 3 C-14.27318563 2.49193553 -12.54342021 1.99389533 -10.8125 1.5 C-9.84957031 1.2215625 -8.88664062 0.943125 -7.89453125 0.65625 C-5.14654124 0.03322392 -2.80401584 -0.12302812 0 0 Z " fill="#D88389" transform="translate(49,22)"/>
<path d="M0 0 C1.67542976 0.28604898 3.34385343 0.61781233 5 1 C5 2.32 5 3.64 5 5 C5.99 5.33 6.98 5.66 8 6 C5.22276075 6.78688445 2.77389923 7.11949924 -0.109375 7.09765625 C-0.86347656 7.09443359 -1.61757812 7.09121094 -2.39453125 7.08789062 C-3.17183594 7.07951172 -3.94914062 7.07113281 -4.75 7.0625 C-5.54277344 7.05798828 -6.33554688 7.05347656 -7.15234375 7.04882812 C-9.10159508 7.03708565 -11.05080738 7.01915146 -13 7 C-13 6.67 -13 6.34 -13 6 C-12.30132812 5.97421875 -11.60265625 5.9484375 -10.8828125 5.921875 C-9.97273438 5.86515625 -9.06265625 5.8084375 -8.125 5.75 C-7.22007813 5.70359375 -6.31515625 5.6571875 -5.3828125 5.609375 C-2.84009319 5.24920558 -2.84009319 5.24920558 -1.7421875 3.015625 C-1.49726562 2.35046875 -1.25234375 1.6853125 -1 1 C-0.67 0.67 -0.34 0.34 0 0 Z " fill="#6A4549" transform="translate(98,57)"/>
<path d="M0 0 C2.29160319 -0.02692484 4.58329546 -0.04636124 6.875 -0.0625 C8.15117188 -0.07410156 9.42734375 -0.08570313 10.7421875 -0.09765625 C14 0 14 0 16 1 C16 1.99 16 2.98 16 4 C11.05 4 6.1 4 1 4 C0.67 2.68 0.34 1.36 0 0 Z " fill="#E4979C" transform="translate(60,34)"/>
<path d="M0 0 C0.33 0 0.66 0 1 0 C1.25 6.625 1.25 6.625 -1 10 C-4.625 10.1875 -4.625 10.1875 -8 10 C-7.67 7.36 -7.34 4.72 -7 2 C-5.68 1.67 -4.36 1.34 -3 1 C-2.67 2.65 -2.34 4.3 -2 6 C-1.34 6 -0.68 6 0 6 C0 4.02 0 2.04 0 0 Z " fill="#AFB3B4" transform="translate(31,79)"/>
<path d="M0 0 C2.64 0 5.28 0 8 0 C8 1.65 8 3.3 8 5 C8.99 5 9.98 5 11 5 C11.33 4.01 11.66 3.02 12 2 C12.66 2.33 13.32 2.66 14 3 C14 6.3 14 9.6 14 13 C13.01 13 12.02 13 11 13 C11 11.02 11 9.04 11 7 C9.35 7 7.7 7 6 7 C6 5.02 6 3.04 6 1 C4.02 1 2.04 1 0 1 C0 0.67 0 0.34 0 0 Z " fill="#DDABAF" transform="translate(101,17)"/>
<path d="M0 0 C12.87 0 25.74 0 39 0 C39 1.32 39 2.64 39 4 C38.01 4 37.02 4 36 4 C36 3.01 36 2.02 36 1 C24.12 1.33 12.24 1.66 0 2 C0 1.34 0 0.68 0 0 Z " fill="#522224" transform="translate(38,58)"/>
<path d="M0 0 C0.99 0 1.98 0 3 0 C3 4.29 3 8.58 3 13 C1.68 13 0.36 13 -1 13 C-1.02686553 11.02090602 -1.04633375 9.04171029 -1.0625 7.0625 C-1.07410156 5.96035156 -1.08570312 4.85820313 -1.09765625 3.72265625 C-1 1 -1 1 0 0 Z " fill="#CBC0BF" transform="translate(99,66)"/>
<path d="M0 0 C4.62 0 9.24 0 14 0 C14.33 1.32 14.66 2.64 15 4 C14.08476563 3.98839844 13.16953125 3.97679687 12.2265625 3.96484375 C11.03804687 3.95582031 9.84953125 3.94679688 8.625 3.9375 C6.84996094 3.92009766 6.84996094 3.92009766 5.0390625 3.90234375 C2.08078479 3.78533407 2.08078479 3.78533407 0 5 C0 3.35 0 1.7 0 0 Z " fill="#CC444C" transform="translate(85,24)"/>
<path d="M0 0 C0.33 0 0.66 0 1 0 C2.10228696 4.40914783 2.07654536 8.48382401 2 13 C0 12 0 12 -1 9 C-1.92232422 9.14308594 -1.92232422 9.14308594 -2.86328125 9.2890625 C-3.67152344 9.39992188 -4.47976562 9.51078125 -5.3125 9.625 C-6.11300781 9.74101562 -6.91351563 9.85703125 -7.73828125 9.9765625 C-10 10 -10 10 -13 8 C-9.04 7.01 -5.08 6.02 -1 5 C-0.67 3.35 -0.34 1.7 0 0 Z " fill="#E3A5AB" transform="translate(72,7)"/>
<path d="M0 0 C3.3 0 6.6 0 10 0 C10 2.64 10 5.28 10 8 C6.7 8 3.4 8 0 8 C0 5.36 0 2.72 0 0 Z M1 1 C1 2.65 1 4.3 1 6 C3.31 6 5.62 6 8 6 C8 4.35 8 2.7 8 1 C5.69 1 3.38 1 1 1 Z " fill="#EBB8C0" transform="translate(88,6)"/>
<path d="M0 0 C3.08404808 0.11020857 6.16691192 0.24075814 9.25 0.375 C10.55904297 0.42140625 10.55904297 0.42140625 11.89453125 0.46875 C13.16103516 0.52675781 13.16103516 0.52675781 14.453125 0.5859375 C15.22817383 0.6173584 16.00322266 0.6487793 16.80175781 0.68115234 C19 1 19 1 23 3 C15.74 3 8.48 3 1 3 C0.67 2.01 0.34 1.02 0 0 Z " fill="#E05961" transform="translate(39,46)"/>
<path d="M0 0 C1.98 0.495 1.98 0.495 4 1 C4 1.66 4 2.32 4 3 C6.475 3.99 6.475 3.99 9 5 C9 5.66 9 6.32 9 7 C6.03 7 3.06 7 0 7 C-1 3 -1 3 0 0 Z " fill="#D94148" transform="translate(32,25)"/>
<path d="M0 0 C0.33 0 0.66 0 1 0 C1 3.63 1 7.26 1 11 C6.94 11 12.88 11 19 11 C19 11.33 19 11.66 19 12 C15.04 12 11.08 12 7 12 C7 12.66 7 13.32 7 14 C5.00045254 14.04254356 2.99958364 14.04080783 1 14 C0 13 0 13 -0.09765625 10.05859375 C-0.08605469 8.86363281 -0.07445313 7.66867188 -0.0625 6.4375 C-0.05347656 5.23996094 -0.04445313 4.04242188 -0.03515625 2.80859375 C-0.02355469 1.88175781 -0.01195313 0.95492187 0 0 Z " fill="#56484C" transform="translate(32,52)"/>
<path d="M0 0 C0.33 0.66 0.66 1.32 1 2 C-7.415 2.495 -7.415 2.495 -16 3 C-15.67 2.01 -15.34 1.02 -15 0 C-9.9594101 -1.16321305 -5.03693964 -1.2194696 0 0 Z " fill="#C23C44" transform="translate(65,20)"/>
<path d="M0 0 C3.3 0.66 6.6 1.32 10 2 C10.33 2.99 10.66 3.98 11 5 C9.5629191 5.05422947 8.12524538 5.09289723 6.6875 5.125 C5.88699219 5.14820313 5.08648437 5.17140625 4.26171875 5.1953125 C2 5 2 5 -1 3 C-0.67 2.01 -0.34 1.02 0 0 Z " fill="#D03137" transform="translate(46,33)"/>
<path d="M0 0 C0.89203125 0.00902344 1.7840625 0.01804687 2.703125 0.02734375 C3.37859375 0.03894531 4.0540625 0.05054688 4.75 0.0625 C2.75 3.0625 2.75 3.0625 0.69140625 3.609375 C-0.48615234 3.70992187 -0.48615234 3.70992187 -1.6875 3.8125 C-2.46996094 3.88984375 -3.25242187 3.9671875 -4.05859375 4.046875 C-6.25 4.0625 -6.25 4.0625 -9.25 3.0625 C-9.25 2.4025 -9.25 1.7425 -9.25 1.0625 C-6.09493858 0.12630187 -3.28413498 -0.0432123 0 0 Z " fill="#BF323B" transform="translate(22.25,10.9375)"/>
<path d="M0 0 C0 0.33 0 0.66 0 1 C-1.65 1 -3.3 1 -5 1 C-4.67 3.31 -4.34 5.62 -4 8 C-5.32 8 -6.64 8 -8 8 C-8.33 6.35 -8.66 4.7 -9 3 C-9.99 2.67 -10.98 2.34 -12 2 C-7.82262526 0.40861915 -4.46839215 -0.21278058 0 0 Z " fill="#D46169" transform="translate(68,3)"/>
<path d="M0 0 C-0.99 1.485 -0.99 1.485 -2 3 C-3.32 2.67 -4.64 2.34 -6 2 C-5.67 3.65 -5.34 5.3 -5 7 C-6.65 7.33 -8.3 7.66 -10 8 C-10 5.69 -10 3.38 -10 1 C-6.59437148 0.22157062 -3.49234244 -0.09978121 0 0 Z " fill="#D26D73" transform="translate(58,10)"/>
<path d="M0 0 C3.3 0 6.6 0 10 0 C10 2.64 10 5.28 10 8 C6.7 8 3.4 8 0 8 C0 5.36 0 2.72 0 0 Z M1 1 C1 2.98 1 4.96 1 7 C2.99954746 7.04254356 5.00041636 7.04080783 7 7 C8.29633621 5.93354885 8.29633621 5.93354885 8.0625 3.4375 C8.041875 2.633125 8.02125 1.82875 8 1 C5.69 1 3.38 1 1 1 Z " fill="#E9B6BD" transform="translate(100,6)"/>
<path d="M0 0 C3.3 0 6.6 0 10 0 C10.66 1.32 11.32 2.64 12 4 C8.7 4 5.4 4 2 4 C2 3.34 2 2.68 2 2 C1.34 2 0.68 2 0 2 C0 1.34 0 0.68 0 0 Z " fill="#E0AAB0" transform="translate(60,46)"/>
<path d="M0 0 C0.66 0 1.32 0 2 0 C2.33 2.64 2.66 5.28 3 8 C4.65 8 6.3 8 8 8 C8 8.99 8 9.98 8 11 C5.36 11 2.72 11 0 11 C0 7.37 0 3.74 0 0 Z " fill="#D5DBDE" transform="translate(33,52)"/>
<path d="M0 0 C0.33 0 0.66 0 1 0 C1 3.3 1 6.6 1 10 C0.01 10 -0.98 10 -2 10 C-2 8.35 -2 6.7 -2 5 C-4.64 5 -7.28 5 -10 5 C-10 6.65 -10 8.3 -10 10 C-10.33 10 -10.66 10 -11 10 C-11 8.02 -11 6.04 -11 4 C-7.37 4 -3.74 4 0 4 C0 2.68 0 1.36 0 0 Z " fill="#BF474D" transform="translate(111,12)"/>
<path d="M0 0 C0.99 0 1.98 0 3 0 C3 0.66 3 1.32 3 2 C2.34 2 1.68 2 1 2 C1 2.99 1 3.98 1 5 C2.32 5 3.64 5 5 5 C5 5.66 5 6.32 5 7 C2.03 7.66 -0.94 8.32 -4 9 C-4 8.34 -4 7.68 -4 7 C-3.34 7 -2.68 7 -2 7 C-1.34 4.69 -0.68 2.38 0 0 Z " fill="#CC1622" transform="translate(28,13)"/>
<path d="M0 0 C0.99 0 1.98 0 3 0 C3 1.98 3 3.96 3 6 C-0.3 6 -3.6 6 -7 6 C-7 5.34 -7 4.68 -7 4 C-5.02 4 -3.04 4 -1 4 C-0.67 2.68 -0.34 1.36 0 0 Z " fill="#C80C18" transform="translate(109,24)"/>
<path d="M0 0 C0.66 0 1.32 0 2 0 C2.33 0.66 2.66 1.32 3 2 C3.99 2.33 4.98 2.66 6 3 C7.38576923 4.62332967 8.72641268 6.28724465 10 8 C8.68 8.33 7.36 8.66 6 9 C5.34 7.35 4.68 5.7 4 4 C2.35 4 0.7 4 -1 4 C-0.67 2.68 -0.34 1.36 0 0 Z " fill="#A7A6A6" transform="translate(28,69)"/>
<path d="M0 0 C5.875 1.875 5.875 1.875 7 3 C7.04063832 4.66617115 7.042721 6.33388095 7 8 C5.68 7.34 4.36 6.68 3 6 C3 5.34 3 4.68 3 4 C1.68 3.67 0.36 3.34 -1 3 C-0.67 2.01 -0.34 1.02 0 0 Z " fill="#5E4141" transform="translate(31,68)"/>
<path d="M0 0 C0.33 1.32 0.66 2.64 1 4 C4.96 4.33 8.92 4.66 13 5 C13 5.33 13 5.66 13 6 C7.39 6 1.78 6 -4 6 C-2 1 -2 1 0 0 Z " fill="#BABDC0" transform="translate(12,52)"/>
<path d="M0 0 C0.99386719 0.00902344 1.98773438 0.01804688 3.01171875 0.02734375 C4.15060547 0.04474609 4.15060547 0.04474609 5.3125 0.0625 C4.3225 1.5475 4.3225 1.5475 3.3125 3.0625 C-1.24978926 3.43042655 -4.75992087 3.68088609 -8.6875 1.0625 C-5.53819107 0.01273036 -3.29935544 -0.03881595 0 0 Z " fill="#DC2229" transform="translate(56.6875,48.9375)"/>
<path d="M0 0 C0.33 0.66 0.66 1.32 1 2 C3.32156597 2.40729228 5.6568787 2.74438677 8 3 C7.67 3.66 7.34 4.32 7 5 C4.35139573 5.59355614 1.70802678 5.74209269 -1 6 C-0.67 5.01 -0.34 4.02 0 3 C-0.99 2.67 -1.98 2.34 -3 2 C-2.01 1.34 -1.02 0.68 0 0 Z " fill="#E3A4A9" transform="translate(33,19)"/>
<path d="M0 0 C-2.66666667 2 -5.33333333 4 -8 6 C-8 5.34 -8 4.68 -8 4 C-9.32 3.67 -10.64 3.34 -12 3 C-8.2391768 -0.7608232 -5.0273023 -0.25136512 0 0 Z " fill="#957274" transform="translate(85,69)"/>
<path d="M0 0 C1.093125 0.0825 2.18625 0.165 3.3125 0.25 C2.3125 3.25 2.3125 3.25 0.3125 4.25 C-2.0204866 4.29022391 -4.35456666 4.29320247 -6.6875 4.25 C-4.79150483 0.68106792 -4.16790733 0.28256999 0 0 Z " fill="#CF1E26" transform="translate(69.6875,37.75)"/>
<path d="M0 0 C2.97 0.33 5.94 0.66 9 1 C9 1.99 9 2.98 9 4 C6.69 4 4.38 4 2 4 C1.34 2.68 0.68 1.36 0 0 Z " fill="#CA1F2A" transform="translate(50,27)"/>
<path d="M0 0 C1.2065625 0.0309375 1.2065625 0.0309375 2.4375 0.0625 C1.8125 2 1.8125 2 0.4375 4.0625 C-2.6875 4.8125 -2.6875 4.8125 -5.5625 5.0625 C-3.15007962 0.07683121 -3.15007962 0.07683121 0 0 Z " fill="#8E8384" transform="translate(74.5625,72.9375)"/>
<path d="M0 0 C0 0.66 0 1.32 0 2 C-3.63 2.66 -7.26 3.32 -11 4 C-10.67 2.68 -10.34 1.36 -10 0 C-2.25 -1.125 -2.25 -1.125 0 0 Z " fill="#3F3638" transform="translate(29,67)"/>
<path d="M0 0 C0.66 0 1.32 0 2 0 C2.66 1.32 3.32 2.64 4 4 C3.01 5.485 3.01 5.485 2 7 C0.68 6.67 -0.64 6.34 -2 6 C-1.34 4.02 -0.68 2.04 0 0 Z " fill="#545658" transform="translate(7,49)"/>
<path d="M0 0 C2.97 0 5.94 0 9 0 C9 0.66 9 1.32 9 2 C11.97 2 14.94 2 18 2 C18 2.33 18 2.66 18 3 C15.9377952 3.054348 13.87517184 3.09294961 11.8125 3.125 C10.66394531 3.14820313 9.51539063 3.17140625 8.33203125 3.1953125 C5.08259628 3.00484152 2.91339479 2.39360127 0 1 C0 0.67 0 0.34 0 0 Z " fill="#DD8D8F" transform="translate(37,44)"/>
<path d="M0 0 C1.32 0.66 2.64 1.32 4 2 C4 2.99 4 3.98 4 5 C-2.15234375 4.4140625 -2.15234375 4.4140625 -4 4 C-4.33 3.34 -4.66 2.68 -5 2 C-3.35 2 -1.7 2 0 2 C0 1.34 0 0.68 0 0 Z " fill="#9C8282" transform="translate(87,68)"/>
<path d="M0 0 C2.64 0 5.28 0 8 0 C7.67 1.32 7.34 2.64 7 4 C4.625 3.6875 4.625 3.6875 2 3 C1.34 2.01 0.68 1.02 0 0 Z " fill="#C61D25" transform="translate(87,67)"/>
<path d="M0 0 C1.98 0 3.96 0 6 0 C5.67 1.32 5.34 2.64 5 4 C3.35 4 1.7 4 0 4 C0 2.68 0 1.36 0 0 Z " fill="#CB444B" transform="translate(103,24)"/>
<path d="M0 0 C1.98 0 3.96 0 6 0 C6 0.99 6 1.98 6 3 C4.35 3 2.7 3 1 3 C1 3.66 1 4.32 1 5 C0.34 5 -0.32 5 -1 5 C-0.67 3.35 -0.34 1.7 0 0 Z " fill="#D0535B" transform="translate(47,8)"/>
<path d="M0 0 C2.475 0.495 2.475 0.495 5 1 C4.67 2.65 4.34 4.3 4 6 C3.01 6 2.02 6 1 6 C0.67 4.02 0.34 2.04 0 0 Z " fill="#4C4F52" transform="translate(78,80)"/>
<path d="M0 0 C5.625 -0.25 5.625 -0.25 9 2 C9 2.66 9 3.32 9 4 C7.02 4 5.04 4 3 4 C3 3.01 3 2.02 3 1 C2.01 0.67 1.02 0.34 0 0 Z " fill="#B3B6B9" transform="translate(77,77)"/>
<path d="M0 0 C2.4375 0.75 2.4375 0.75 5 2 C5.8125 4.125 5.8125 4.125 6 6 C4.35 5.67 2.7 5.34 1 5 C0.67 3.35 0.34 1.7 0 0 Z " fill="#7A2F35" transform="translate(73,5)"/>
<path d="M0 0 C2.31 0 4.62 0 7 0 C7 0.99 7 1.98 7 3 C4.69 3 2.38 3 0 3 C0 2.01 0 1.02 0 0 Z " fill="#EDCACC" transform="translate(57,69)"/>
<path d="M0 0 C1.98 0.495 1.98 0.495 4 1 C3.67 2.32 3.34 3.64 3 5 C1.68 5 0.36 5 -1 5 C-0.67 3.35 -0.34 1.7 0 0 Z " fill="#4B4D4F" transform="translate(25,80)"/>
<path d="M0 0 C1.65 0 3.3 0 5 0 C5 1.32 5 2.64 5 4 C3.35 4 1.7 4 0 4 C0 2.68 0 1.36 0 0 Z " fill="#BFC4C4" transform="translate(7,75)"/>
<path d="M0 0 C0 2.97 0 5.94 0 9 C-0.66 9 -1.32 9 -2 9 C-2.33 6.36 -2.66 3.72 -3 1 C-1 0 -1 0 0 0 Z " fill="#89141C" transform="translate(83,10)"/>
<path d="M0 0 C1.98 0 3.96 0 6 0 C6 0.99 6 1.98 6 3 C4.02 3 2.04 3 0 3 C0 2.01 0 1.02 0 0 Z " fill="#F2DCE0" transform="translate(44,69)"/>
<path d="M0 0 C-4.75 4 -4.75 4 -7 4 C-7 2.68 -7 1.36 -7 0 C-3.86650268 -1.04449911 -3.01031744 -0.93423645 0 0 Z " fill="#433A3C" transform="translate(14,44)"/>
<path d="M0 0 C2.31 0.33 4.62 0.66 7 1 C7 1.66 7 2.32 7 3 C4.69 3 2.38 3 0 3 C0 2.01 0 1.02 0 0 Z " fill="#D91F28" transform="translate(34,29)"/>
<path d="M0 0 C1.65 0 3.3 0 5 0 C5 0.99 5 1.98 5 3 C3.02 3 1.04 3 -1 3 C-0.67 2.01 -0.34 1.02 0 0 Z " fill="#C51C24" transform="translate(50,20)"/>
<path d="M0 0 C1.98 0.495 1.98 0.495 4 1 C4 1.99 4 2.98 4 4 C2.35 4 0.7 4 -1 4 C-0.67 2.68 -0.34 1.36 0 0 Z " fill="#E7C2C3" transform="translate(14,18)"/>
</svg>
